<?xml version="1.0" encoding="UTF-8" standalone="no"?><!DOCTYPE svg PUBLIC "-//W3C//DTD SVG 1.1//EN" "http://www.w3.org/Graphics/SVG/1.1/DTD/svg11.dtd"><!-- Generated by graphviz version 2.40.1 (20161225.0304)
 --><!-- Title: tree Pages: 1 --><svg xmlns="http://www.w3.org/2000/svg" xmlns:xlink="http://www.w3.org/1999/xlink" width="573pt" height="1293pt" viewBox="0.00 0.00 573.00 1292.80">
<g id="graph0" class="graph" transform="scale(1 1) rotate(0) translate(4 1288.8)">
<title>tree</title>
<polygon fill="#ffffff" stroke="transparent" points="-4,4 -4,-1288.8 569,-1288.8 569,4 -4,4"/>
<text text-anchor="middle" x="282.5" y="-1268.2" font-family="Times,serif" font-size="14.00" fill="#000000">(b in c) =&gt; ((c in d) =&gt; (d in f))</text>
<!-- Node0 -->
<g id="node1" class="node">
<title>Node0</title>
<ellipse fill="none" stroke="#000000" cx="412" cy="-1242" rx="27" ry="18"/>
<text text-anchor="middle" x="412" y="-1237.8" font-family="Times,serif" font-size="14.00" fill="#000000">I</text>
</g>
<!-- Node1 -->
<g id="node2" class="node">
<title>Node1</title>
<ellipse fill="none" stroke="#000000" cx="376" cy="-1170" rx="27" ry="18"/>
<text text-anchor="middle" x="376" y="-1165.8" font-family="Times,serif" font-size="14.00" fill="#000000">E</text>
</g>
<!-- Node0&#45;&gt;Node1 -->
<g id="edge18" class="edge">
<title>Node0-&gt;Node1</title>
<path fill="none" stroke="#000000" d="M403.2854,-1224.5708C399.0403,-1216.0807 393.8464,-1205.6929 389.1337,-1196.2674"/>
<polygon fill="#000000" stroke="#000000" points="392.237,-1194.6477 384.6343,-1187.2687 385.976,-1197.7782 392.237,-1194.6477"/>
</g>
<!-- Node24 -->
<g id="node20" class="node">
<title>Node24</title>
<ellipse fill="none" stroke="#000000" cx="448" cy="-1170" rx="27" ry="18"/>
<text text-anchor="middle" x="448" y="-1165.8" font-family="Times,serif" font-size="14.00" fill="#000000">I'</text>
</g>
<!-- Node0&#45;&gt;Node24 -->
<g id="edge70" class="edge">
<title>Node0-&gt;Node24</title>
<path fill="none" stroke="#000000" d="M420.7146,-1224.5708C424.9597,-1216.0807 430.1536,-1205.6929 434.8663,-1196.2674"/>
<polygon fill="#000000" stroke="#000000" points="438.024,-1197.7782 439.3657,-1187.2687 431.763,-1194.6477 438.024,-1197.7782"/>
</g>
<!-- Node2 -->
<g id="node3" class="node">
<title>Node2</title>
<ellipse fill="none" stroke="#000000" cx="304" cy="-1098" rx="27" ry="18"/>
<text text-anchor="middle" x="304" y="-1093.8" font-family="Times,serif" font-size="14.00" fill="#000000">T</text>
</g>
<!-- Node1&#45;&gt;Node2 -->
<g id="edge16" class="edge">
<title>Node1-&gt;Node2</title>
<path fill="none" stroke="#000000" d="M360.7307,-1154.7307C350.803,-1144.803 337.6847,-1131.6847 326.5637,-1120.5637"/>
<polygon fill="#000000" stroke="#000000" points="328.7933,-1117.8436 319.2473,-1113.2473 323.8436,-1122.7933 328.7933,-1117.8436"/>
</g>
<!-- Node22 -->
<g id="node19" class="node">
<title>Node22</title>
<ellipse fill="none" stroke="#000000" cx="376" cy="-1098" rx="27" ry="18"/>
<text text-anchor="middle" x="376" y="-1093.8" font-family="Times,serif" font-size="14.00" fill="#000000">E'</text>
</g>
<!-- Node1&#45;&gt;Node22 -->
<g id="edge17" class="edge">
<title>Node1-&gt;Node22</title>
<path fill="none" stroke="#000000" d="M376,-1151.8314C376,-1144.131 376,-1134.9743 376,-1126.4166"/>
<polygon fill="#000000" stroke="#000000" points="379.5001,-1126.4132 376,-1116.4133 372.5001,-1126.4133 379.5001,-1126.4132"/>
</g>
<!-- Node3 -->
<g id="node4" class="node">
<title>Node3</title>
<ellipse fill="none" stroke="#000000" cx="268" cy="-1026" rx="27" ry="18"/>
<text text-anchor="middle" x="268" y="-1021.8" font-family="Times,serif" font-size="14.00" fill="#000000">F</text>
</g>
<!-- Node2&#45;&gt;Node3 -->
<g id="edge14" class="edge">
<title>Node2-&gt;Node3</title>
<path fill="none" stroke="#000000" d="M295.2854,-1080.5708C291.0403,-1072.0807 285.8464,-1061.6929 281.1337,-1052.2674"/>
<polygon fill="#000000" stroke="#000000" points="284.237,-1050.6477 276.6343,-1043.2687 277.976,-1053.7782 284.237,-1050.6477"/>
</g>
<!-- Node20 -->
<g id="node18" class="node">
<title>Node20</title>
<ellipse fill="none" stroke="#000000" cx="340" cy="-1026" rx="27" ry="18"/>
<text text-anchor="middle" x="340" y="-1021.8" font-family="Times,serif" font-size="14.00" fill="#000000">T'</text>
</g>
<!-- Node2&#45;&gt;Node20 -->
<g id="edge15" class="edge">
<title>Node2-&gt;Node20</title>
<path fill="none" stroke="#000000" d="M312.7146,-1080.5708C316.9597,-1072.0807 322.1536,-1061.6929 326.8663,-1052.2674"/>
<polygon fill="#000000" stroke="#000000" points="330.024,-1053.7782 331.3657,-1043.2687 323.763,-1050.6477 330.024,-1053.7782"/>
</g>
<!-- Node4 -->
<g id="node5" class="node">
<title>Node4</title>
<ellipse fill="none" stroke="#000000" cx="196" cy="-954" rx="27" ry="18"/>
<text text-anchor="middle" x="196" y="-949.8" font-family="Times,serif" font-size="14.00" fill="#000000">(</text>
</g>
<!-- Node3&#45;&gt;Node4 -->
<g id="edge1" class="edge">
<title>Node3-&gt;Node4</title>
<path fill="none" stroke="#000000" d="M252.7307,-1010.7307C242.803,-1000.803 229.6847,-987.6847 218.5637,-976.5637"/>
<polygon fill="#000000" stroke="#000000" points="220.7933,-973.8436 211.2473,-969.2473 215.8436,-978.7933 220.7933,-973.8436"/>
</g>
<!-- Node5 -->
<g id="node6" class="node">
<title>Node5</title>
<ellipse fill="none" stroke="#000000" cx="268" cy="-954" rx="27" ry="18"/>
<text text-anchor="middle" x="268" y="-949.8" font-family="Times,serif" font-size="14.00" fill="#000000">I</text>
</g>
<!-- Node3&#45;&gt;Node5 -->
<g id="edge12" class="edge">
<title>Node3-&gt;Node5</title>
<path fill="none" stroke="#000000" d="M268,-1007.8314C268,-1000.131 268,-990.9743 268,-982.4166"/>
<polygon fill="#000000" stroke="#000000" points="271.5001,-982.4132 268,-972.4133 264.5001,-982.4133 271.5001,-982.4132"/>
</g>
<!-- Node19 -->
<g id="node17" class="node">
<title>Node19</title>
<ellipse fill="none" stroke="#000000" cx="340" cy="-954" rx="27" ry="18"/>
<text text-anchor="middle" x="340" y="-949.8" font-family="Times,serif" font-size="14.00" fill="#000000">)</text>
</g>
<!-- Node3&#45;&gt;Node19 -->
<g id="edge13" class="edge">
<title>Node3-&gt;Node19</title>
<path fill="none" stroke="#000000" d="M283.2693,-1010.7307C293.197,-1000.803 306.3153,-987.6847 317.4363,-976.5637"/>
<polygon fill="#000000" stroke="#000000" points="320.1564,-978.7933 324.7527,-969.2473 315.2067,-973.8436 320.1564,-978.7933"/>
</g>
<!-- Node6 -->
<g id="node7" class="node">
<title>Node6</title>
<ellipse fill="none" stroke="#000000" cx="196" cy="-882" rx="27" ry="18"/>
<text text-anchor="middle" x="196" y="-877.8" font-family="Times,serif" font-size="14.00" fill="#000000">E</text>
</g>
<!-- Node5&#45;&gt;Node6 -->
<g id="edge10" class="edge">
<title>Node5-&gt;Node6</title>
<path fill="none" stroke="#000000" d="M252.7307,-938.7307C242.803,-928.803 229.6847,-915.6847 218.5637,-904.5637"/>
<polygon fill="#000000" stroke="#000000" points="220.7933,-901.8436 211.2473,-897.2473 215.8436,-906.7933 220.7933,-901.8436"/>
</g>
<!-- Node17 -->
<g id="node16" class="node">
<title>Node17</title>
<ellipse fill="none" stroke="#000000" cx="268" cy="-882" rx="27" ry="18"/>
<text text-anchor="middle" x="268" y="-877.8" font-family="Times,serif" font-size="14.00" fill="#000000">I'</text>
</g>
<!-- Node5&#45;&gt;Node17 -->
<g id="edge11" class="edge">
<title>Node5-&gt;Node17</title>
<path fill="none" stroke="#000000" d="M268,-935.8314C268,-928.131 268,-918.9743 268,-910.4166"/>
<polygon fill="#000000" stroke="#000000" points="271.5001,-910.4132 268,-900.4133 264.5001,-910.4133 271.5001,-910.4132"/>
</g>
<!-- Node7 -->
<g id="node8" class="node">
<title>Node7</title>
<ellipse fill="none" stroke="#000000" cx="164" cy="-810" rx="27" ry="18"/>
<text text-anchor="middle" x="164" y="-805.8" font-family="Times,serif" font-size="14.00" fill="#000000">T</text>
</g>
<!-- Node6&#45;&gt;Node7 -->
<g id="edge8" class="edge">
<title>Node6-&gt;Node7</title>
<path fill="none" stroke="#000000" d="M188.2537,-864.5708C184.5196,-856.1691 179.9596,-845.9091 175.8055,-836.5623"/>
<polygon fill="#000000" stroke="#000000" points="178.9348,-834.9853 171.675,-827.2687 172.5381,-837.8283 178.9348,-834.9853"/>
</g>
<!-- Node15 -->
<g id="node15" class="node">
<title>Node15</title>
<ellipse fill="none" stroke="#000000" cx="236" cy="-810" rx="27" ry="18"/>
<text text-anchor="middle" x="236" y="-805.8" font-family="Times,serif" font-size="14.00" fill="#000000">E'</text>
</g>
<!-- Node6&#45;&gt;Node15 -->
<g id="edge9" class="edge">
<title>Node6-&gt;Node15</title>
<path fill="none" stroke="#000000" d="M205.4794,-864.937C210.3115,-856.2393 216.2889,-845.4799 221.6696,-835.7948"/>
<polygon fill="#000000" stroke="#000000" points="224.7917,-837.3819 226.5886,-826.9405 218.6726,-833.9823 224.7917,-837.3819"/>
</g>
<!-- Node8 -->
<g id="node9" class="node">
<title>Node8</title>
<ellipse fill="none" stroke="#000000" cx="104" cy="-738" rx="27" ry="18"/>
<text text-anchor="middle" x="104" y="-733.8" font-family="Times,serif" font-size="14.00" fill="#000000">F</text>
</g>
<!-- Node7&#45;&gt;Node8 -->
<g id="edge6" class="edge">
<title>Node7-&gt;Node8</title>
<path fill="none" stroke="#000000" d="M150.6841,-794.0209C142.7607,-784.5128 132.5607,-772.2728 123.717,-761.6604"/>
<polygon fill="#000000" stroke="#000000" points="126.3694,-759.376 117.2787,-753.9345 120.9918,-763.8574 126.3694,-759.376"/>
</g>
<!-- Node13 -->
<g id="node14" class="node">
<title>Node13</title>
<ellipse fill="none" stroke="#000000" cx="176" cy="-738" rx="27" ry="18"/>
<text text-anchor="middle" x="176" y="-733.8" font-family="Times,serif" font-size="14.00" fill="#000000">T'</text>
</g>
<!-- Node7&#45;&gt;Node13 -->
<g id="edge7" class="edge">
<title>Node7-&gt;Node13</title>
<path fill="none" stroke="#000000" d="M167.0281,-791.8314C168.3313,-784.0125 169.8846,-774.6923 171.3297,-766.0221"/>
<polygon fill="#000000" stroke="#000000" points="174.8227,-766.3528 173.0144,-755.9134 167.918,-765.2019 174.8227,-766.3528"/>
</g>
<!-- Node9 -->
<g id="node10" class="node">
<title>Node9</title>
<ellipse fill="none" stroke="#000000" cx="56" cy="-666" rx="27" ry="18"/>
<text text-anchor="middle" x="56" y="-661.8" font-family="Times,serif" font-size="14.00" fill="#000000">b</text>
</g>
<!-- Node8&#45;&gt;Node9 -->
<g id="edge2" class="edge">
<title>Node8-&gt;Node9</title>
<path fill="none" stroke="#000000" d="M92.8672,-721.3008C86.8696,-712.3043 79.3498,-701.0247 72.6686,-691.0029"/>
<polygon fill="#000000" stroke="#000000" points="75.5317,-688.9877 67.0724,-682.6087 69.7073,-692.8706 75.5317,-688.9877"/>
</g>
<!-- Node10 -->
<g id="node11" class="node">
<title>Node10</title>
<ellipse fill="none" stroke="#000000" cx="128" cy="-666" rx="27" ry="18"/>
<text text-anchor="middle" x="128" y="-661.8" font-family="Times,serif" font-size="14.00" fill="#000000">U</text>
</g>
<!-- Node8&#45;&gt;Node10 -->
<g id="edge5" class="edge">
<title>Node8-&gt;Node10</title>
<path fill="none" stroke="#000000" d="M109.9326,-720.2022C112.6355,-712.0936 115.8957,-702.3129 118.8984,-693.3049"/>
<polygon fill="#000000" stroke="#000000" points="122.2937,-694.1867 122.1357,-683.593 115.6529,-691.973 122.2937,-694.1867"/>
</g>
<!-- Node11 -->
<g id="node12" class="node">
<title>Node11</title>
<ellipse fill="none" stroke="#000000" cx="56" cy="-594" rx="27" ry="18"/>
<text text-anchor="middle" x="56" y="-589.8" font-family="Times,serif" font-size="14.00" fill="#000000">in</text>
</g>
<!-- Node10&#45;&gt;Node11 -->
<g id="edge3" class="edge">
<title>Node10-&gt;Node11</title>
<path fill="none" stroke="#000000" d="M112.7307,-650.7307C102.803,-640.803 89.6847,-627.6847 78.5637,-616.5637"/>
<polygon fill="#000000" stroke="#000000" points="80.7933,-613.8436 71.2473,-609.2473 75.8436,-618.7933 80.7933,-613.8436"/>
</g>
<!-- Node12 -->
<g id="node13" class="node">
<title>Node12</title>
<ellipse fill="none" stroke="#000000" cx="128" cy="-594" rx="27" ry="18"/>
<text text-anchor="middle" x="128" y="-589.8" font-family="Times,serif" font-size="14.00" fill="#000000">c</text>
</g>
<!-- Node10&#45;&gt;Node12 -->
<g id="edge4" class="edge">
<title>Node10-&gt;Node12</title>
<path fill="none" stroke="#000000" d="M128,-647.8314C128,-640.131 128,-630.9743 128,-622.4166"/>
<polygon fill="#000000" stroke="#000000" points="131.5001,-622.4132 128,-612.4133 124.5001,-622.4133 131.5001,-622.4132"/>
</g>
<!-- Node25 -->
<g id="node21" class="node">
<title>Node25</title>
<ellipse fill="none" stroke="#000000" cx="448" cy="-1098" rx="27" ry="18"/>
<text text-anchor="middle" x="448" y="-1093.8" font-family="Times,serif" font-size="14.00" fill="#000000">=&gt;</text>
</g>
<!-- Node24&#45;&gt;Node25 -->
<g id="edge19" class="edge">
<title>Node24-&gt;Node25</title>
<path fill="none" stroke="#000000" d="M448,-1151.8314C448,-1144.131 448,-1134.9743 448,-1126.4166"/>
<polygon fill="#000000" stroke="#000000" points="451.5001,-1126.4132 448,-1116.4133 444.5001,-1126.4133 451.5001,-1126.4132"/>
</g>
<!-- Node26 -->
<g id="node22" class="node">
<title>Node26</title>
<ellipse fill="none" stroke="#000000" cx="520" cy="-1098" rx="27" ry="18"/>
<text text-anchor="middle" x="520" y="-1093.8" font-family="Times,serif" font-size="14.00" fill="#000000">I</text>
</g>
<!-- Node24&#45;&gt;Node26 -->
<g id="edge69" class="edge">
<title>Node24-&gt;Node26</title>
<path fill="none" stroke="#000000" d="M463.2693,-1154.7307C473.197,-1144.803 486.3153,-1131.6847 497.4363,-1120.5637"/>
<polygon fill="#000000" stroke="#000000" points="500.1564,-1122.7933 504.7527,-1113.2473 495.2067,-1117.8436 500.1564,-1122.7933"/>
</g>
<!-- Node27 -->
<g id="node23" class="node">
<title>Node27</title>
<ellipse fill="none" stroke="#000000" cx="466" cy="-1026" rx="27" ry="18"/>
<text text-anchor="middle" x="466" y="-1021.8" font-family="Times,serif" font-size="14.00" fill="#000000">E</text>
</g>
<!-- Node26&#45;&gt;Node27 -->
<g id="edge67" class="edge">
<title>Node26-&gt;Node27</title>
<path fill="none" stroke="#000000" d="M507.7466,-1081.6621C500.8423,-1072.4564 492.0823,-1060.7764 484.3715,-1050.4953"/>
<polygon fill="#000000" stroke="#000000" points="487.005,-1048.1733 478.2049,-1042.2733 481.405,-1052.3733 487.005,-1048.1733"/>
</g>
<!-- Node88 -->
<g id="node71" class="node">
<title>Node88</title>
<ellipse fill="none" stroke="#000000" cx="538" cy="-1026" rx="27" ry="18"/>
<text text-anchor="middle" x="538" y="-1021.8" font-family="Times,serif" font-size="14.00" fill="#000000">I'</text>
</g>
<!-- Node26&#45;&gt;Node88 -->
<g id="edge68" class="edge">
<title>Node26-&gt;Node88</title>
<path fill="none" stroke="#000000" d="M524.4494,-1080.2022C526.4398,-1072.2406 528.8332,-1062.6671 531.0511,-1053.7957"/>
<polygon fill="#000000" stroke="#000000" points="534.5094,-1054.3929 533.5394,-1043.8425 527.7184,-1052.6951 534.5094,-1054.3929"/>
</g>
<!-- Node28 -->
<g id="node24" class="node">
<title>Node28</title>
<ellipse fill="none" stroke="#000000" cx="439" cy="-954" rx="27" ry="18"/>
<text text-anchor="middle" x="439" y="-949.8" font-family="Times,serif" font-size="14.00" fill="#000000">T</text>
</g>
<!-- Node27&#45;&gt;Node28 -->
<g id="edge65" class="edge">
<title>Node27-&gt;Node28</title>
<path fill="none" stroke="#000000" d="M459.3258,-1008.2022C456.2524,-1000.0064 452.5384,-990.1024 449.1305,-981.0145"/>
<polygon fill="#000000" stroke="#000000" points="452.3858,-979.7274 445.5974,-971.593 445.8315,-982.1853 452.3858,-979.7274"/>
</g>
<!-- Node86 -->
<g id="node70" class="node">
<title>Node86</title>
<ellipse fill="none" stroke="#000000" cx="511" cy="-954" rx="27" ry="18"/>
<text text-anchor="middle" x="511" y="-949.8" font-family="Times,serif" font-size="14.00" fill="#000000">E'</text>
</g>
<!-- Node27&#45;&gt;Node86 -->
<g id="edge66" class="edge">
<title>Node27-&gt;Node86</title>
<path fill="none" stroke="#000000" d="M476.437,-1009.3008C481.9235,-1000.5224 488.7686,-989.5703 494.9163,-979.7339"/>
<polygon fill="#000000" stroke="#000000" points="497.9751,-981.4436 500.3071,-971.1086 492.0391,-977.7336 497.9751,-981.4436"/>
</g>
<!-- Node29 -->
<g id="node25" class="node">
<title>Node29</title>
<ellipse fill="none" stroke="#000000" cx="389" cy="-882" rx="27" ry="18"/>
<text text-anchor="middle" x="389" y="-877.8" font-family="Times,serif" font-size="14.00" fill="#000000">F</text>
</g>
<!-- Node28&#45;&gt;Node29 -->
<g id="edge63" class="edge">
<title>Node28-&gt;Node29</title>
<path fill="none" stroke="#000000" d="M427.6542,-937.6621C421.4145,-928.6768 413.5377,-917.3343 406.5251,-907.2362"/>
<polygon fill="#000000" stroke="#000000" points="409.2267,-904.9902 400.6479,-898.7729 403.4771,-908.983 409.2267,-904.9902"/>
</g>
<!-- Node84 -->
<g id="node69" class="node">
<title>Node84</title>
<ellipse fill="none" stroke="#000000" cx="461" cy="-882" rx="27" ry="18"/>
<text text-anchor="middle" x="461" y="-877.8" font-family="Times,serif" font-size="14.00" fill="#000000">T'</text>
</g>
<!-- Node28&#45;&gt;Node84 -->
<g id="edge64" class="edge">
<title>Node28-&gt;Node84</title>
<path fill="none" stroke="#000000" d="M444.4382,-936.2022C446.8974,-928.1541 449.8598,-918.4588 452.5952,-909.5067"/>
<polygon fill="#000000" stroke="#000000" points="455.9731,-910.4289 455.5481,-899.8425 449.2786,-908.3833 455.9731,-910.4289"/>
</g>
<!-- Node30 -->
<g id="node26" class="node">
<title>Node30</title>
<ellipse fill="none" stroke="#000000" cx="317" cy="-810" rx="27" ry="18"/>
<text text-anchor="middle" x="317" y="-805.8" font-family="Times,serif" font-size="14.00" fill="#000000">(</text>
</g>
<!-- Node29&#45;&gt;Node30 -->
<g id="edge20" class="edge">
<title>Node29-&gt;Node30</title>
<path fill="none" stroke="#000000" d="M373.7307,-866.7307C363.803,-856.803 350.6847,-843.6847 339.5637,-832.5637"/>
<polygon fill="#000000" stroke="#000000" points="341.7933,-829.8436 332.2473,-825.2473 336.8436,-834.7933 341.7933,-829.8436"/>
</g>
<!-- Node31 -->
<g id="node27" class="node">
<title>Node31</title>
<ellipse fill="none" stroke="#000000" cx="389" cy="-810" rx="27" ry="18"/>
<text text-anchor="middle" x="389" y="-805.8" font-family="Times,serif" font-size="14.00" fill="#000000">I</text>
</g>
<!-- Node29&#45;&gt;Node31 -->
<g id="edge61" class="edge">
<title>Node29-&gt;Node31</title>
<path fill="none" stroke="#000000" d="M389,-863.8314C389,-856.131 389,-846.9743 389,-838.4166"/>
<polygon fill="#000000" stroke="#000000" points="392.5001,-838.4132 389,-828.4133 385.5001,-838.4133 392.5001,-838.4132"/>
</g>
<!-- Node83 -->
<g id="node68" class="node">
<title>Node83</title>
<ellipse fill="none" stroke="#000000" cx="461" cy="-810" rx="27" ry="18"/>
<text text-anchor="middle" x="461" y="-805.8" font-family="Times,serif" font-size="14.00" fill="#000000">)</text>
</g>
<!-- Node29&#45;&gt;Node83 -->
<g id="edge62" class="edge">
<title>Node29-&gt;Node83</title>
<path fill="none" stroke="#000000" d="M404.2693,-866.7307C414.197,-856.803 427.3153,-843.6847 438.4363,-832.5637"/>
<polygon fill="#000000" stroke="#000000" points="441.1564,-834.7933 445.7527,-825.2473 436.2067,-829.8436 441.1564,-834.7933"/>
</g>
<!-- Node32 -->
<g id="node28" class="node">
<title>Node32</title>
<ellipse fill="none" stroke="#000000" cx="317" cy="-738" rx="27" ry="18"/>
<text text-anchor="middle" x="317" y="-733.8" font-family="Times,serif" font-size="14.00" fill="#000000">E</text>
</g>
<!-- Node31&#45;&gt;Node32 -->
<g id="edge38" class="edge">
<title>Node31-&gt;Node32</title>
<path fill="none" stroke="#000000" d="M373.7307,-794.7307C363.803,-784.803 350.6847,-771.6847 339.5637,-760.5637"/>
<polygon fill="#000000" stroke="#000000" points="341.7933,-757.8436 332.2473,-753.2473 336.8436,-762.7933 341.7933,-757.8436"/>
</g>
<!-- Node55 -->
<g id="node46" class="node">
<title>Node55</title>
<ellipse fill="none" stroke="#000000" cx="389" cy="-738" rx="27" ry="18"/>
<text text-anchor="middle" x="389" y="-733.8" font-family="Times,serif" font-size="14.00" fill="#000000">I'</text>
</g>
<!-- Node31&#45;&gt;Node55 -->
<g id="edge60" class="edge">
<title>Node31-&gt;Node55</title>
<path fill="none" stroke="#000000" d="M389,-791.8314C389,-784.131 389,-774.9743 389,-766.4166"/>
<polygon fill="#000000" stroke="#000000" points="392.5001,-766.4132 389,-756.4133 385.5001,-766.4133 392.5001,-766.4132"/>
</g>
<!-- Node33 -->
<g id="node29" class="node">
<title>Node33</title>
<ellipse fill="none" stroke="#000000" cx="245" cy="-666" rx="27" ry="18"/>
<text text-anchor="middle" x="245" y="-661.8" font-family="Times,serif" font-size="14.00" fill="#000000">T</text>
</g>
<!-- Node32&#45;&gt;Node33 -->
<g id="edge36" class="edge">
<title>Node32-&gt;Node33</title>
<path fill="none" stroke="#000000" d="M301.7307,-722.7307C291.803,-712.803 278.6847,-699.6847 267.5637,-688.5637"/>
<polygon fill="#000000" stroke="#000000" points="269.7933,-685.8436 260.2473,-681.2473 264.8436,-690.7933 269.7933,-685.8436"/>
</g>
<!-- Node53 -->
<g id="node45" class="node">
<title>Node53</title>
<ellipse fill="none" stroke="#000000" cx="317" cy="-666" rx="27" ry="18"/>
<text text-anchor="middle" x="317" y="-661.8" font-family="Times,serif" font-size="14.00" fill="#000000">E'</text>
</g>
<!-- Node32&#45;&gt;Node53 -->
<g id="edge37" class="edge">
<title>Node32-&gt;Node53</title>
<path fill="none" stroke="#000000" d="M317,-719.8314C317,-712.131 317,-702.9743 317,-694.4166"/>
<polygon fill="#000000" stroke="#000000" points="320.5001,-694.4132 317,-684.4133 313.5001,-694.4133 320.5001,-694.4132"/>
</g>
<!-- Node34 -->
<g id="node30" class="node">
<title>Node34</title>
<ellipse fill="none" stroke="#000000" cx="200" cy="-594" rx="27" ry="18"/>
<text text-anchor="middle" x="200" y="-589.8" font-family="Times,serif" font-size="14.00" fill="#000000">F</text>
</g>
<!-- Node33&#45;&gt;Node34 -->
<g id="edge34" class="edge">
<title>Node33-&gt;Node34</title>
<path fill="none" stroke="#000000" d="M234.563,-649.3008C229.0765,-640.5224 222.2314,-629.5703 216.0837,-619.7339"/>
<polygon fill="#000000" stroke="#000000" points="218.9609,-617.7336 210.6929,-611.1086 213.0249,-621.4436 218.9609,-617.7336"/>
</g>
<!-- Node51 -->
<g id="node44" class="node">
<title>Node51</title>
<ellipse fill="none" stroke="#000000" cx="272" cy="-594" rx="27" ry="18"/>
<text text-anchor="middle" x="272" y="-589.8" font-family="Times,serif" font-size="14.00" fill="#000000">T'</text>
</g>
<!-- Node33&#45;&gt;Node51 -->
<g id="edge35" class="edge">
<title>Node33-&gt;Node51</title>
<path fill="none" stroke="#000000" d="M251.6742,-648.2022C254.7476,-640.0064 258.4616,-630.1024 261.8695,-621.0145"/>
<polygon fill="#000000" stroke="#000000" points="265.1685,-622.1853 265.4026,-611.593 258.6142,-619.7274 265.1685,-622.1853"/>
</g>
<!-- Node35 -->
<g id="node31" class="node">
<title>Node35</title>
<ellipse fill="none" stroke="#000000" cx="128" cy="-522" rx="27" ry="18"/>
<text text-anchor="middle" x="128" y="-517.8" font-family="Times,serif" font-size="14.00" fill="#000000">(</text>
</g>
<!-- Node34&#45;&gt;Node35 -->
<g id="edge21" class="edge">
<title>Node34-&gt;Node35</title>
<path fill="none" stroke="#000000" d="M184.7307,-578.7307C174.803,-568.803 161.6847,-555.6847 150.5637,-544.5637"/>
<polygon fill="#000000" stroke="#000000" points="152.7933,-541.8436 143.2473,-537.2473 147.8436,-546.7933 152.7933,-541.8436"/>
</g>
<!-- Node36 -->
<g id="node32" class="node">
<title>Node36</title>
<ellipse fill="none" stroke="#000000" cx="200" cy="-522" rx="27" ry="18"/>
<text text-anchor="middle" x="200" y="-517.8" font-family="Times,serif" font-size="14.00" fill="#000000">I</text>
</g>
<!-- Node34&#45;&gt;Node36 -->
<g id="edge32" class="edge">
<title>Node34-&gt;Node36</title>
<path fill="none" stroke="#000000" d="M200,-575.8314C200,-568.131 200,-558.9743 200,-550.4166"/>
<polygon fill="#000000" stroke="#000000" points="203.5001,-550.4132 200,-540.4133 196.5001,-550.4133 203.5001,-550.4132"/>
</g>
<!-- Node50 -->
<g id="node43" class="node">
<title>Node50</title>
<ellipse fill="none" stroke="#000000" cx="272" cy="-522" rx="27" ry="18"/>
<text text-anchor="middle" x="272" y="-517.8" font-family="Times,serif" font-size="14.00" fill="#000000">)</text>
</g>
<!-- Node34&#45;&gt;Node50 -->
<g id="edge33" class="edge">
<title>Node34-&gt;Node50</title>
<path fill="none" stroke="#000000" d="M215.2693,-578.7307C225.197,-568.803 238.3153,-555.6847 249.4363,-544.5637"/>
<polygon fill="#000000" stroke="#000000" points="252.1564,-546.7933 256.7527,-537.2473 247.2067,-541.8436 252.1564,-546.7933"/>
</g>
<!-- Node37 -->
<g id="node33" class="node">
<title>Node37</title>
<ellipse fill="none" stroke="#000000" cx="128" cy="-450" rx="27" ry="18"/>
<text text-anchor="middle" x="128" y="-445.8" font-family="Times,serif" font-size="14.00" fill="#000000">E</text>
</g>
<!-- Node36&#45;&gt;Node37 -->
<g id="edge30" class="edge">
<title>Node36-&gt;Node37</title>
<path fill="none" stroke="#000000" d="M184.7307,-506.7307C174.803,-496.803 161.6847,-483.6847 150.5637,-472.5637"/>
<polygon fill="#000000" stroke="#000000" points="152.7933,-469.8436 143.2473,-465.2473 147.8436,-474.7933 152.7933,-469.8436"/>
</g>
<!-- Node48 -->
<g id="node42" class="node">
<title>Node48</title>
<ellipse fill="none" stroke="#000000" cx="200" cy="-450" rx="27" ry="18"/>
<text text-anchor="middle" x="200" y="-445.8" font-family="Times,serif" font-size="14.00" fill="#000000">I'</text>
</g>
<!-- Node36&#45;&gt;Node48 -->
<g id="edge31" class="edge">
<title>Node36-&gt;Node48</title>
<path fill="none" stroke="#000000" d="M200,-503.8314C200,-496.131 200,-486.9743 200,-478.4166"/>
<polygon fill="#000000" stroke="#000000" points="203.5001,-478.4132 200,-468.4133 196.5001,-478.4133 203.5001,-478.4132"/>
</g>
<!-- Node38 -->
<g id="node34" class="node">
<title>Node38</title>
<ellipse fill="none" stroke="#000000" cx="83" cy="-378" rx="27" ry="18"/>
<text text-anchor="middle" x="83" y="-373.8" font-family="Times,serif" font-size="14.00" fill="#000000">T</text>
</g>
<!-- Node37&#45;&gt;Node38 -->
<g id="edge28" class="edge">
<title>Node37-&gt;Node38</title>
<path fill="none" stroke="#000000" d="M117.563,-433.3008C112.0765,-424.5224 105.2314,-413.5703 99.0837,-403.7339"/>
<polygon fill="#000000" stroke="#000000" points="101.9609,-401.7336 93.6929,-395.1086 96.0249,-405.4436 101.9609,-401.7336"/>
</g>
<!-- Node46 -->
<g id="node41" class="node">
<title>Node46</title>
<ellipse fill="none" stroke="#000000" cx="155" cy="-378" rx="27" ry="18"/>
<text text-anchor="middle" x="155" y="-373.8" font-family="Times,serif" font-size="14.00" fill="#000000">E'</text>
</g>
<!-- Node37&#45;&gt;Node46 -->
<g id="edge29" class="edge">
<title>Node37-&gt;Node46</title>
<path fill="none" stroke="#000000" d="M134.6742,-432.2022C137.7476,-424.0064 141.4616,-414.1024 144.8695,-405.0145"/>
<polygon fill="#000000" stroke="#000000" points="148.1685,-406.1853 148.4026,-395.593 141.6142,-403.7274 148.1685,-406.1853"/>
</g>
<!-- Node39 -->
<g id="node35" class="node">
<title>Node39</title>
<ellipse fill="none" stroke="#000000" cx="65" cy="-306" rx="27" ry="18"/>
<text text-anchor="middle" x="65" y="-301.8" font-family="Times,serif" font-size="14.00" fill="#000000">F</text>
</g>
<!-- Node38&#45;&gt;Node39 -->
<g id="edge26" class="edge">
<title>Node38-&gt;Node39</title>
<path fill="none" stroke="#000000" d="M78.5506,-360.2022C76.5602,-352.2406 74.1668,-342.6671 71.9489,-333.7957"/>
<polygon fill="#000000" stroke="#000000" points="75.2816,-332.6951 69.4606,-323.8425 68.4906,-334.3929 75.2816,-332.6951"/>
</g>
<!-- Node44 -->
<g id="node40" class="node">
<title>Node44</title>
<ellipse fill="none" stroke="#000000" cx="137" cy="-306" rx="27" ry="18"/>
<text text-anchor="middle" x="137" y="-301.8" font-family="Times,serif" font-size="14.00" fill="#000000">T'</text>
</g>
<!-- Node38&#45;&gt;Node44 -->
<g id="edge27" class="edge">
<title>Node38-&gt;Node44</title>
<path fill="none" stroke="#000000" d="M95.2534,-361.6621C102.1577,-352.4564 110.9177,-340.7764 118.6285,-330.4953"/>
<polygon fill="#000000" stroke="#000000" points="121.595,-332.3733 124.7951,-322.2733 115.995,-328.1733 121.595,-332.3733"/>
</g>
<!-- Node40 -->
<g id="node36" class="node">
<title>Node40</title>
<ellipse fill="none" stroke="#000000" cx="27" cy="-234" rx="27" ry="18"/>
<text text-anchor="middle" x="27" y="-229.8" font-family="Times,serif" font-size="14.00" fill="#000000">c</text>
</g>
<!-- Node39&#45;&gt;Node40 -->
<g id="edge22" class="edge">
<title>Node39-&gt;Node40</title>
<path fill="none" stroke="#000000" d="M55.9945,-288.937C51.5172,-280.4537 46.0048,-270.0092 40.993,-260.513"/>
<polygon fill="#000000" stroke="#000000" points="43.9678,-258.6509 36.2048,-251.4407 37.7771,-261.9182 43.9678,-258.6509"/>
</g>
<!-- Node41 -->
<g id="node37" class="node">
<title>Node41</title>
<ellipse fill="none" stroke="#000000" cx="99" cy="-234" rx="27" ry="18"/>
<text text-anchor="middle" x="99" y="-229.8" font-family="Times,serif" font-size="14.00" fill="#000000">U</text>
</g>
<!-- Node39&#45;&gt;Node41 -->
<g id="edge25" class="edge">
<title>Node39-&gt;Node41</title>
<path fill="none" stroke="#000000" d="M73.2305,-288.5708C77.1979,-280.1691 82.0429,-269.9091 86.4567,-260.5623"/>
<polygon fill="#000000" stroke="#000000" points="89.7401,-261.8057 90.8453,-251.2687 83.4104,-258.8166 89.7401,-261.8057"/>
</g>
<!-- Node42 -->
<g id="node38" class="node">
<title>Node42</title>
<ellipse fill="none" stroke="#000000" cx="45" cy="-162" rx="27" ry="18"/>
<text text-anchor="middle" x="45" y="-157.8" font-family="Times,serif" font-size="14.00" fill="#000000">in</text>
</g>
<!-- Node41&#45;&gt;Node42 -->
<g id="edge23" class="edge">
<title>Node41-&gt;Node42</title>
<path fill="none" stroke="#000000" d="M86.7466,-217.6621C79.8423,-208.4564 71.0823,-196.7764 63.3715,-186.4953"/>
<polygon fill="#000000" stroke="#000000" points="66.005,-184.1733 57.2049,-178.2733 60.405,-188.3733 66.005,-184.1733"/>
</g>
<!-- Node43 -->
<g id="node39" class="node">
<title>Node43</title>
<ellipse fill="none" stroke="#000000" cx="117" cy="-162" rx="27" ry="18"/>
<text text-anchor="middle" x="117" y="-157.8" font-family="Times,serif" font-size="14.00" fill="#000000">d</text>
</g>
<!-- Node41&#45;&gt;Node43 -->
<g id="edge24" class="edge">
<title>Node41-&gt;Node43</title>
<path fill="none" stroke="#000000" d="M103.4494,-216.2022C105.4398,-208.2406 107.8332,-198.6671 110.0511,-189.7957"/>
<polygon fill="#000000" stroke="#000000" points="113.5094,-190.3929 112.5394,-179.8425 106.7184,-188.6951 113.5094,-190.3929"/>
</g>
<!-- Node56 -->
<g id="node47" class="node">
<title>Node56</title>
<ellipse fill="none" stroke="#000000" cx="389" cy="-666" rx="27" ry="18"/>
<text text-anchor="middle" x="389" y="-661.8" font-family="Times,serif" font-size="14.00" fill="#000000">=&gt;</text>
</g>
<!-- Node55&#45;&gt;Node56 -->
<g id="edge39" class="edge">
<title>Node55-&gt;Node56</title>
<path fill="none" stroke="#000000" d="M389,-719.8314C389,-712.131 389,-702.9743 389,-694.4166"/>
<polygon fill="#000000" stroke="#000000" points="392.5001,-694.4132 389,-684.4133 385.5001,-694.4133 392.5001,-694.4132"/>
</g>
<!-- Node57 -->
<g id="node48" class="node">
<title>Node57</title>
<ellipse fill="none" stroke="#000000" cx="461" cy="-666" rx="27" ry="18"/>
<text text-anchor="middle" x="461" y="-661.8" font-family="Times,serif" font-size="14.00" fill="#000000">I</text>
</g>
<!-- Node55&#45;&gt;Node57 -->
<g id="edge59" class="edge">
<title>Node55-&gt;Node57</title>
<path fill="none" stroke="#000000" d="M404.2693,-722.7307C414.197,-712.803 427.3153,-699.6847 438.4363,-688.5637"/>
<polygon fill="#000000" stroke="#000000" points="441.1564,-690.7933 445.7527,-681.2473 436.2067,-685.8436 441.1564,-690.7933"/>
</g>
<!-- Node58 -->
<g id="node49" class="node">
<title>Node58</title>
<ellipse fill="none" stroke="#000000" cx="407" cy="-594" rx="27" ry="18"/>
<text text-anchor="middle" x="407" y="-589.8" font-family="Times,serif" font-size="14.00" fill="#000000">E</text>
</g>
<!-- Node57&#45;&gt;Node58 -->
<g id="edge57" class="edge">
<title>Node57-&gt;Node58</title>
<path fill="none" stroke="#000000" d="M448.7466,-649.6621C441.8423,-640.4564 433.0823,-628.7764 425.3715,-618.4953"/>
<polygon fill="#000000" stroke="#000000" points="428.005,-616.1733 419.2049,-610.2733 422.405,-620.3733 428.005,-616.1733"/>
</g>
<!-- Node81 -->
<g id="node67" class="node">
<title>Node81</title>
<ellipse fill="none" stroke="#000000" cx="479" cy="-594" rx="27" ry="18"/>
<text text-anchor="middle" x="479" y="-589.8" font-family="Times,serif" font-size="14.00" fill="#000000">I'</text>
</g>
<!-- Node57&#45;&gt;Node81 -->
<g id="edge58" class="edge">
<title>Node57-&gt;Node81</title>
<path fill="none" stroke="#000000" d="M465.4494,-648.2022C467.4398,-640.2406 469.8332,-630.6671 472.0511,-621.7957"/>
<polygon fill="#000000" stroke="#000000" points="475.5094,-622.3929 474.5394,-611.8425 468.7184,-620.6951 475.5094,-622.3929"/>
</g>
<!-- Node59 -->
<g id="node50" class="node">
<title>Node59</title>
<ellipse fill="none" stroke="#000000" cx="344" cy="-522" rx="27" ry="18"/>
<text text-anchor="middle" x="344" y="-517.8" font-family="Times,serif" font-size="14.00" fill="#000000">T</text>
</g>
<!-- Node58&#45;&gt;Node59 -->
<g id="edge55" class="edge">
<title>Node58-&gt;Node59</title>
<path fill="none" stroke="#000000" d="M393.3299,-578.3771C384.8266,-568.659 373.7387,-555.987 364.2292,-545.1191"/>
<polygon fill="#000000" stroke="#000000" points="366.8625,-542.8135 357.6434,-537.5924 361.5944,-547.423 366.8625,-542.8135"/>
</g>
<!-- Node79 -->
<g id="node66" class="node">
<title>Node79</title>
<ellipse fill="none" stroke="#000000" cx="416" cy="-522" rx="27" ry="18"/>
<text text-anchor="middle" x="416" y="-517.8" font-family="Times,serif" font-size="14.00" fill="#000000">E'</text>
</g>
<!-- Node58&#45;&gt;Node79 -->
<g id="edge56" class="edge">
<title>Node58-&gt;Node79</title>
<path fill="none" stroke="#000000" d="M409.2711,-575.8314C410.2336,-568.131 411.3782,-558.9743 412.4479,-550.4166"/>
<polygon fill="#000000" stroke="#000000" points="415.9309,-550.7702 413.6983,-540.4133 408.9849,-549.9019 415.9309,-550.7702"/>
</g>
<!-- Node60 -->
<g id="node51" class="node">
<title>Node60</title>
<ellipse fill="none" stroke="#000000" cx="308" cy="-450" rx="27" ry="18"/>
<text text-anchor="middle" x="308" y="-445.8" font-family="Times,serif" font-size="14.00" fill="#000000">F</text>
</g>
<!-- Node59&#45;&gt;Node60 -->
<g id="edge53" class="edge">
<title>Node59-&gt;Node60</title>
<path fill="none" stroke="#000000" d="M335.2854,-504.5708C331.0403,-496.0807 325.8464,-485.6929 321.1337,-476.2674"/>
<polygon fill="#000000" stroke="#000000" points="324.237,-474.6477 316.6343,-467.2687 317.976,-477.7782 324.237,-474.6477"/>
</g>
<!-- Node77 -->
<g id="node65" class="node">
<title>Node77</title>
<ellipse fill="none" stroke="#000000" cx="380" cy="-450" rx="27" ry="18"/>
<text text-anchor="middle" x="380" y="-445.8" font-family="Times,serif" font-size="14.00" fill="#000000">T'</text>
</g>
<!-- Node59&#45;&gt;Node77 -->
<g id="edge54" class="edge">
<title>Node59-&gt;Node77</title>
<path fill="none" stroke="#000000" d="M352.7146,-504.5708C356.9597,-496.0807 362.1536,-485.6929 366.8663,-476.2674"/>
<polygon fill="#000000" stroke="#000000" points="370.024,-477.7782 371.3657,-467.2687 363.763,-474.6477 370.024,-477.7782"/>
</g>
<!-- Node61 -->
<g id="node52" class="node">
<title>Node61</title>
<ellipse fill="none" stroke="#000000" cx="236" cy="-378" rx="27" ry="18"/>
<text text-anchor="middle" x="236" y="-373.8" font-family="Times,serif" font-size="14.00" fill="#000000">(</text>
</g>
<!-- Node60&#45;&gt;Node61 -->
<g id="edge40" class="edge">
<title>Node60-&gt;Node61</title>
<path fill="none" stroke="#000000" d="M292.7307,-434.7307C282.803,-424.803 269.6847,-411.6847 258.5637,-400.5637"/>
<polygon fill="#000000" stroke="#000000" points="260.7933,-397.8436 251.2473,-393.2473 255.8436,-402.7933 260.7933,-397.8436"/>
</g>
<!-- Node62 -->
<g id="node53" class="node">
<title>Node62</title>
<ellipse fill="none" stroke="#000000" cx="308" cy="-378" rx="27" ry="18"/>
<text text-anchor="middle" x="308" y="-373.8" font-family="Times,serif" font-size="14.00" fill="#000000">I</text>
</g>
<!-- Node60&#45;&gt;Node62 -->
<g id="edge51" class="edge">
<title>Node60-&gt;Node62</title>
<path fill="none" stroke="#000000" d="M308,-431.8314C308,-424.131 308,-414.9743 308,-406.4166"/>
<polygon fill="#000000" stroke="#000000" points="311.5001,-406.4132 308,-396.4133 304.5001,-406.4133 311.5001,-406.4132"/>
</g>
<!-- Node76 -->
<g id="node64" class="node">
<title>Node76</title>
<ellipse fill="none" stroke="#000000" cx="380" cy="-378" rx="27" ry="18"/>
<text text-anchor="middle" x="380" y="-373.8" font-family="Times,serif" font-size="14.00" fill="#000000">)</text>
</g>
<!-- Node60&#45;&gt;Node76 -->
<g id="edge52" class="edge">
<title>Node60-&gt;Node76</title>
<path fill="none" stroke="#000000" d="M323.2693,-434.7307C333.197,-424.803 346.3153,-411.6847 357.4363,-400.5637"/>
<polygon fill="#000000" stroke="#000000" points="360.1564,-402.7933 364.7527,-393.2473 355.2067,-397.8436 360.1564,-402.7933"/>
</g>
<!-- Node63 -->
<g id="node54" class="node">
<title>Node63</title>
<ellipse fill="none" stroke="#000000" cx="240" cy="-306" rx="27" ry="18"/>
<text text-anchor="middle" x="240" y="-301.8" font-family="Times,serif" font-size="14.00" fill="#000000">E</text>
</g>
<!-- Node62&#45;&gt;Node63 -->
<g id="edge49" class="edge">
<title>Node62-&gt;Node63</title>
<path fill="none" stroke="#000000" d="M293.5789,-362.7307C284.2028,-352.803 271.8133,-339.6847 261.3101,-328.5637"/>
<polygon fill="#000000" stroke="#000000" points="263.8111,-326.1143 254.4003,-321.2473 258.722,-330.9207 263.8111,-326.1143"/>
</g>
<!-- Node74 -->
<g id="node63" class="node">
<title>Node74</title>
<ellipse fill="none" stroke="#000000" cx="312" cy="-306" rx="27" ry="18"/>
<text text-anchor="middle" x="312" y="-301.8" font-family="Times,serif" font-size="14.00" fill="#000000">I'</text>
</g>
<!-- Node62&#45;&gt;Node74 -->
<g id="edge50" class="edge">
<title>Node62-&gt;Node74</title>
<path fill="none" stroke="#000000" d="M309.0094,-359.8314C309.4372,-352.131 309.9459,-342.9743 310.4213,-334.4166"/>
<polygon fill="#000000" stroke="#000000" points="313.9169,-334.592 310.977,-324.4133 306.9276,-334.2037 313.9169,-334.592"/>
</g>
<!-- Node64 -->
<g id="node55" class="node">
<title>Node64</title>
<ellipse fill="none" stroke="#000000" cx="207" cy="-234" rx="27" ry="18"/>
<text text-anchor="middle" x="207" y="-229.8" font-family="Times,serif" font-size="14.00" fill="#000000">T</text>
</g>
<!-- Node63&#45;&gt;Node64 -->
<g id="edge47" class="edge">
<title>Node63-&gt;Node64</title>
<path fill="none" stroke="#000000" d="M232.0116,-288.5708C228.1608,-280.1691 223.4583,-269.9091 219.1744,-260.5623"/>
<polygon fill="#000000" stroke="#000000" points="222.2631,-258.901 214.9148,-251.2687 215.8997,-261.8177 222.2631,-258.901"/>
</g>
<!-- Node72 -->
<g id="node62" class="node">
<title>Node72</title>
<ellipse fill="none" stroke="#000000" cx="279" cy="-234" rx="27" ry="18"/>
<text text-anchor="middle" x="279" y="-229.8" font-family="Times,serif" font-size="14.00" fill="#000000">E'</text>
</g>
<!-- Node63&#45;&gt;Node72 -->
<g id="edge48" class="edge">
<title>Node63-&gt;Node72</title>
<path fill="none" stroke="#000000" d="M249.2425,-288.937C253.9537,-280.2393 259.7817,-269.4799 265.0278,-259.7948"/>
<polygon fill="#000000" stroke="#000000" points="268.1385,-261.4005 269.8239,-250.9405 261.9835,-258.0664 268.1385,-261.4005"/>
</g>
<!-- Node65 -->
<g id="node56" class="node">
<title>Node65</title>
<ellipse fill="none" stroke="#000000" cx="198" cy="-162" rx="27" ry="18"/>
<text text-anchor="middle" x="198" y="-157.8" font-family="Times,serif" font-size="14.00" fill="#000000">F</text>
</g>
<!-- Node64&#45;&gt;Node65 -->
<g id="edge45" class="edge">
<title>Node64-&gt;Node65</title>
<path fill="none" stroke="#000000" d="M204.7289,-215.8314C203.7664,-208.131 202.6218,-198.9743 201.5521,-190.4166"/>
<polygon fill="#000000" stroke="#000000" points="205.0151,-189.9019 200.3017,-180.4133 198.0691,-190.7702 205.0151,-189.9019"/>
</g>
<!-- Node70 -->
<g id="node61" class="node">
<title>Node70</title>
<ellipse fill="none" stroke="#000000" cx="270" cy="-162" rx="27" ry="18"/>
<text text-anchor="middle" x="270" y="-157.8" font-family="Times,serif" font-size="14.00" fill="#000000">T'</text>
</g>
<!-- Node64&#45;&gt;Node70 -->
<g id="edge46" class="edge">
<title>Node64-&gt;Node70</title>
<path fill="none" stroke="#000000" d="M220.6701,-218.3771C229.1734,-208.659 240.2613,-195.987 249.7708,-185.1191"/>
<polygon fill="#000000" stroke="#000000" points="252.4056,-187.423 256.3566,-177.5924 247.1375,-182.8135 252.4056,-187.423"/>
</g>
<!-- Node66 -->
<g id="node57" class="node">
<title>Node66</title>
<ellipse fill="none" stroke="#000000" cx="162" cy="-90" rx="27" ry="18"/>
<text text-anchor="middle" x="162" y="-85.8" font-family="Times,serif" font-size="14.00" fill="#000000">d</text>
</g>
<!-- Node65&#45;&gt;Node66 -->
<g id="edge41" class="edge">
<title>Node65-&gt;Node66</title>
<path fill="none" stroke="#000000" d="M189.2854,-144.5708C185.0403,-136.0807 179.8464,-125.6929 175.1337,-116.2674"/>
<polygon fill="#000000" stroke="#000000" points="178.237,-114.6477 170.6343,-107.2687 171.976,-117.7782 178.237,-114.6477"/>
</g>
<!-- Node67 -->
<g id="node58" class="node">
<title>Node67</title>
<ellipse fill="none" stroke="#000000" cx="234" cy="-90" rx="27" ry="18"/>
<text text-anchor="middle" x="234" y="-85.8" font-family="Times,serif" font-size="14.00" fill="#000000">U</text>
</g>
<!-- Node65&#45;&gt;Node67 -->
<g id="edge44" class="edge">
<title>Node65-&gt;Node67</title>
<path fill="none" stroke="#000000" d="M206.7146,-144.5708C210.9597,-136.0807 216.1536,-125.6929 220.8663,-116.2674"/>
<polygon fill="#000000" stroke="#000000" points="224.024,-117.7782 225.3657,-107.2687 217.763,-114.6477 224.024,-117.7782"/>
</g>
<!-- Node68 -->
<g id="node59" class="node">
<title>Node68</title>
<ellipse fill="none" stroke="#000000" cx="198" cy="-18" rx="27" ry="18"/>
<text text-anchor="middle" x="198" y="-13.8" font-family="Times,serif" font-size="14.00" fill="#000000">in</text>
</g>
<!-- Node67&#45;&gt;Node68 -->
<g id="edge42" class="edge">
<title>Node67-&gt;Node68</title>
<path fill="none" stroke="#000000" d="M225.2854,-72.5708C221.0403,-64.0807 215.8464,-53.6929 211.1337,-44.2674"/>
<polygon fill="#000000" stroke="#000000" points="214.237,-42.6477 206.6343,-35.2687 207.976,-45.7782 214.237,-42.6477"/>
</g>
<!-- Node69 -->
<g id="node60" class="node">
<title>Node69</title>
<ellipse fill="none" stroke="#000000" cx="270" cy="-18" rx="27" ry="18"/>
<text text-anchor="middle" x="270" y="-13.8" font-family="Times,serif" font-size="14.00" fill="#000000">f</text>
</g>
<!-- Node67&#45;&gt;Node69 -->
<g id="edge43" class="edge">
<title>Node67-&gt;Node69</title>
<path fill="none" stroke="#000000" d="M242.7146,-72.5708C246.9597,-64.0807 252.1536,-53.6929 256.8663,-44.2674"/>
<polygon fill="#000000" stroke="#000000" points="260.024,-45.7782 261.3657,-35.2687 253.763,-42.6477 260.024,-45.7782"/>
</g>
</g>
</svg>