<?xml version="1.0" encoding="UTF-8" standalone="no"?><!DOCTYPE svg PUBLIC "-//W3C//DTD SVG 1.1//EN" "http://www.w3.org/Graphics/SVG/1.1/DTD/svg11.dtd"><!-- Generated by graphviz version 2.40.1 (20161225.0304)
 --><!-- Title: tree Pages: 1 --><svg xmlns="http://www.w3.org/2000/svg" xmlns:xlink="http://www.w3.org/1999/xlink" width="570pt" height="1005pt" viewBox="0.00 0.00 570.00 1004.80">
<g id="graph0" class="graph" transform="scale(1 1) rotate(0) translate(4 1000.8)">
<title>tree</title>
<polygon fill="#ffffff" stroke="transparent" points="-4,4 -4,-1000.8 566,-1000.8 566,4 -4,4"/>
<text text-anchor="middle" x="281" y="-980.2" font-family="Times,serif" font-size="14.00" fill="#000000">(b in c) =&gt; (c in d) =&gt; (d in f)</text>
<!-- Node0 -->
<g id="node1" class="node">
<title>Node0</title>
<ellipse fill="none" stroke="#000000" cx="308" cy="-954" rx="27" ry="18"/>
<text text-anchor="middle" x="308" y="-949.8" font-family="Times,serif" font-size="14.00" fill="#000000">I</text>
</g>
<!-- Node1 -->
<g id="node2" class="node">
<title>Node1</title>
<ellipse fill="none" stroke="#000000" cx="272" cy="-882" rx="27" ry="18"/>
<text text-anchor="middle" x="272" y="-877.8" font-family="Times,serif" font-size="14.00" fill="#000000">E</text>
</g>
<!-- Node0&#45;&gt;Node1 -->
<g id="edge18" class="edge">
<title>Node0-&gt;Node1</title>
<path fill="none" stroke="#000000" d="M299.2854,-936.5708C295.0403,-928.0807 289.8464,-917.6929 285.1337,-908.2674"/>
<polygon fill="#000000" stroke="#000000" points="288.237,-906.6477 280.6343,-899.2687 281.976,-909.7782 288.237,-906.6477"/>
</g>
<!-- Node24 -->
<g id="node20" class="node">
<title>Node24</title>
<ellipse fill="none" stroke="#000000" cx="344" cy="-882" rx="27" ry="18"/>
<text text-anchor="middle" x="344" y="-877.8" font-family="Times,serif" font-size="14.00" fill="#000000">I'</text>
</g>
<!-- Node0&#45;&gt;Node24 -->
<g id="edge61" class="edge">
<title>Node0-&gt;Node24</title>
<path fill="none" stroke="#000000" d="M316.7146,-936.5708C320.9597,-928.0807 326.1536,-917.6929 330.8663,-908.2674"/>
<polygon fill="#000000" stroke="#000000" points="334.024,-909.7782 335.3657,-899.2687 327.763,-906.6477 334.024,-909.7782"/>
</g>
<!-- Node2 -->
<g id="node3" class="node">
<title>Node2</title>
<ellipse fill="none" stroke="#000000" cx="200" cy="-810" rx="27" ry="18"/>
<text text-anchor="middle" x="200" y="-805.8" font-family="Times,serif" font-size="14.00" fill="#000000">T</text>
</g>
<!-- Node1&#45;&gt;Node2 -->
<g id="edge16" class="edge">
<title>Node1-&gt;Node2</title>
<path fill="none" stroke="#000000" d="M256.7307,-866.7307C246.803,-856.803 233.6847,-843.6847 222.5637,-832.5637"/>
<polygon fill="#000000" stroke="#000000" points="224.7933,-829.8436 215.2473,-825.2473 219.8436,-834.7933 224.7933,-829.8436"/>
</g>
<!-- Node22 -->
<g id="node19" class="node">
<title>Node22</title>
<ellipse fill="none" stroke="#000000" cx="272" cy="-810" rx="27" ry="18"/>
<text text-anchor="middle" x="272" y="-805.8" font-family="Times,serif" font-size="14.00" fill="#000000">E'</text>
</g>
<!-- Node1&#45;&gt;Node22 -->
<g id="edge17" class="edge">
<title>Node1-&gt;Node22</title>
<path fill="none" stroke="#000000" d="M272,-863.8314C272,-856.131 272,-846.9743 272,-838.4166"/>
<polygon fill="#000000" stroke="#000000" points="275.5001,-838.4132 272,-828.4133 268.5001,-838.4133 275.5001,-838.4132"/>
</g>
<!-- Node3 -->
<g id="node4" class="node">
<title>Node3</title>
<ellipse fill="none" stroke="#000000" cx="164" cy="-738" rx="27" ry="18"/>
<text text-anchor="middle" x="164" y="-733.8" font-family="Times,serif" font-size="14.00" fill="#000000">F</text>
</g>
<!-- Node2&#45;&gt;Node3 -->
<g id="edge14" class="edge">
<title>Node2-&gt;Node3</title>
<path fill="none" stroke="#000000" d="M191.2854,-792.5708C187.0403,-784.0807 181.8464,-773.6929 177.1337,-764.2674"/>
<polygon fill="#000000" stroke="#000000" points="180.237,-762.6477 172.6343,-755.2687 173.976,-765.7782 180.237,-762.6477"/>
</g>
<!-- Node20 -->
<g id="node18" class="node">
<title>Node20</title>
<ellipse fill="none" stroke="#000000" cx="236" cy="-738" rx="27" ry="18"/>
<text text-anchor="middle" x="236" y="-733.8" font-family="Times,serif" font-size="14.00" fill="#000000">T'</text>
</g>
<!-- Node2&#45;&gt;Node20 -->
<g id="edge15" class="edge">
<title>Node2-&gt;Node20</title>
<path fill="none" stroke="#000000" d="M208.7146,-792.5708C212.9597,-784.0807 218.1536,-773.6929 222.8663,-764.2674"/>
<polygon fill="#000000" stroke="#000000" points="226.024,-765.7782 227.3657,-755.2687 219.763,-762.6477 226.024,-765.7782"/>
</g>
<!-- Node4 -->
<g id="node5" class="node">
<title>Node4</title>
<ellipse fill="none" stroke="#000000" cx="92" cy="-666" rx="27" ry="18"/>
<text text-anchor="middle" x="92" y="-661.8" font-family="Times,serif" font-size="14.00" fill="#000000">(</text>
</g>
<!-- Node3&#45;&gt;Node4 -->
<g id="edge1" class="edge">
<title>Node3-&gt;Node4</title>
<path fill="none" stroke="#000000" d="M148.7307,-722.7307C138.803,-712.803 125.6847,-699.6847 114.5637,-688.5637"/>
<polygon fill="#000000" stroke="#000000" points="116.7933,-685.8436 107.2473,-681.2473 111.8436,-690.7933 116.7933,-685.8436"/>
</g>
<!-- Node5 -->
<g id="node6" class="node">
<title>Node5</title>
<ellipse fill="none" stroke="#000000" cx="164" cy="-666" rx="27" ry="18"/>
<text text-anchor="middle" x="164" y="-661.8" font-family="Times,serif" font-size="14.00" fill="#000000">I</text>
</g>
<!-- Node3&#45;&gt;Node5 -->
<g id="edge12" class="edge">
<title>Node3-&gt;Node5</title>
<path fill="none" stroke="#000000" d="M164,-719.8314C164,-712.131 164,-702.9743 164,-694.4166"/>
<polygon fill="#000000" stroke="#000000" points="167.5001,-694.4132 164,-684.4133 160.5001,-694.4133 167.5001,-694.4132"/>
</g>
<!-- Node19 -->
<g id="node17" class="node">
<title>Node19</title>
<ellipse fill="none" stroke="#000000" cx="236" cy="-666" rx="27" ry="18"/>
<text text-anchor="middle" x="236" y="-661.8" font-family="Times,serif" font-size="14.00" fill="#000000">)</text>
</g>
<!-- Node3&#45;&gt;Node19 -->
<g id="edge13" class="edge">
<title>Node3-&gt;Node19</title>
<path fill="none" stroke="#000000" d="M179.2693,-722.7307C189.197,-712.803 202.3153,-699.6847 213.4363,-688.5637"/>
<polygon fill="#000000" stroke="#000000" points="216.1564,-690.7933 220.7527,-681.2473 211.2067,-685.8436 216.1564,-690.7933"/>
</g>
<!-- Node6 -->
<g id="node7" class="node">
<title>Node6</title>
<ellipse fill="none" stroke="#000000" cx="128" cy="-594" rx="27" ry="18"/>
<text text-anchor="middle" x="128" y="-589.8" font-family="Times,serif" font-size="14.00" fill="#000000">E</text>
</g>
<!-- Node5&#45;&gt;Node6 -->
<g id="edge10" class="edge">
<title>Node5-&gt;Node6</title>
<path fill="none" stroke="#000000" d="M155.2854,-648.5708C151.0403,-640.0807 145.8464,-629.6929 141.1337,-620.2674"/>
<polygon fill="#000000" stroke="#000000" points="144.237,-618.6477 136.6343,-611.2687 137.976,-621.7782 144.237,-618.6477"/>
</g>
<!-- Node17 -->
<g id="node16" class="node">
<title>Node17</title>
<ellipse fill="none" stroke="#000000" cx="200" cy="-594" rx="27" ry="18"/>
<text text-anchor="middle" x="200" y="-589.8" font-family="Times,serif" font-size="14.00" fill="#000000">I'</text>
</g>
<!-- Node5&#45;&gt;Node17 -->
<g id="edge11" class="edge">
<title>Node5-&gt;Node17</title>
<path fill="none" stroke="#000000" d="M172.7146,-648.5708C176.9597,-640.0807 182.1536,-629.6929 186.8663,-620.2674"/>
<polygon fill="#000000" stroke="#000000" points="190.024,-621.7782 191.3657,-611.2687 183.763,-618.6477 190.024,-621.7782"/>
</g>
<!-- Node7 -->
<g id="node8" class="node">
<title>Node7</title>
<ellipse fill="none" stroke="#000000" cx="81" cy="-522" rx="27" ry="18"/>
<text text-anchor="middle" x="81" y="-517.8" font-family="Times,serif" font-size="14.00" fill="#000000">T</text>
</g>
<!-- Node6&#45;&gt;Node7 -->
<g id="edge8" class="edge">
<title>Node6-&gt;Node7</title>
<path fill="none" stroke="#000000" d="M117.0991,-577.3008C111.2264,-568.3043 103.8634,-557.0247 97.3213,-547.0029"/>
<polygon fill="#000000" stroke="#000000" points="100.2389,-545.0693 91.8418,-538.6087 94.3772,-548.8957 100.2389,-545.0693"/>
</g>
<!-- Node15 -->
<g id="node15" class="node">
<title>Node15</title>
<ellipse fill="none" stroke="#000000" cx="153" cy="-522" rx="27" ry="18"/>
<text text-anchor="middle" x="153" y="-517.8" font-family="Times,serif" font-size="14.00" fill="#000000">E'</text>
</g>
<!-- Node6&#45;&gt;Node15 -->
<g id="edge9" class="edge">
<title>Node6-&gt;Node15</title>
<path fill="none" stroke="#000000" d="M134.1798,-576.2022C136.9953,-568.0936 140.3913,-558.3129 143.5191,-549.3049"/>
<polygon fill="#000000" stroke="#000000" points="146.9175,-550.1878 146.8913,-539.593 140.3048,-547.8917 146.9175,-550.1878"/>
</g>
<!-- Node8 -->
<g id="node9" class="node">
<title>Node8</title>
<ellipse fill="none" stroke="#000000" cx="63" cy="-450" rx="27" ry="18"/>
<text text-anchor="middle" x="63" y="-445.8" font-family="Times,serif" font-size="14.00" fill="#000000">F</text>
</g>
<!-- Node7&#45;&gt;Node8 -->
<g id="edge6" class="edge">
<title>Node7-&gt;Node8</title>
<path fill="none" stroke="#000000" d="M76.5506,-504.2022C74.5602,-496.2406 72.1668,-486.6671 69.9489,-477.7957"/>
<polygon fill="#000000" stroke="#000000" points="73.2816,-476.6951 67.4606,-467.8425 66.4906,-478.3929 73.2816,-476.6951"/>
</g>
<!-- Node13 -->
<g id="node14" class="node">
<title>Node13</title>
<ellipse fill="none" stroke="#000000" cx="135" cy="-450" rx="27" ry="18"/>
<text text-anchor="middle" x="135" y="-445.8" font-family="Times,serif" font-size="14.00" fill="#000000">T'</text>
</g>
<!-- Node7&#45;&gt;Node13 -->
<g id="edge7" class="edge">
<title>Node7-&gt;Node13</title>
<path fill="none" stroke="#000000" d="M93.2534,-505.6621C100.1577,-496.4564 108.9177,-484.7764 116.6285,-474.4953"/>
<polygon fill="#000000" stroke="#000000" points="119.595,-476.3733 122.7951,-466.2733 113.995,-472.1733 119.595,-476.3733"/>
</g>
<!-- Node9 -->
<g id="node10" class="node">
<title>Node9</title>
<ellipse fill="none" stroke="#000000" cx="27" cy="-378" rx="27" ry="18"/>
<text text-anchor="middle" x="27" y="-373.8" font-family="Times,serif" font-size="14.00" fill="#000000">b</text>
</g>
<!-- Node8&#45;&gt;Node9 -->
<g id="edge2" class="edge">
<title>Node8-&gt;Node9</title>
<path fill="none" stroke="#000000" d="M54.2854,-432.5708C50.0403,-424.0807 44.8464,-413.6929 40.1337,-404.2674"/>
<polygon fill="#000000" stroke="#000000" points="43.237,-402.6477 35.6343,-395.2687 36.976,-405.7782 43.237,-402.6477"/>
</g>
<!-- Node10 -->
<g id="node11" class="node">
<title>Node10</title>
<ellipse fill="none" stroke="#000000" cx="99" cy="-378" rx="27" ry="18"/>
<text text-anchor="middle" x="99" y="-373.8" font-family="Times,serif" font-size="14.00" fill="#000000">U</text>
</g>
<!-- Node8&#45;&gt;Node10 -->
<g id="edge5" class="edge">
<title>Node8-&gt;Node10</title>
<path fill="none" stroke="#000000" d="M71.7146,-432.5708C75.9597,-424.0807 81.1536,-413.6929 85.8663,-404.2674"/>
<polygon fill="#000000" stroke="#000000" points="89.024,-405.7782 90.3657,-395.2687 82.763,-402.6477 89.024,-405.7782"/>
</g>
<!-- Node11 -->
<g id="node12" class="node">
<title>Node11</title>
<ellipse fill="none" stroke="#000000" cx="27" cy="-306" rx="27" ry="18"/>
<text text-anchor="middle" x="27" y="-301.8" font-family="Times,serif" font-size="14.00" fill="#000000">in</text>
</g>
<!-- Node10&#45;&gt;Node11 -->
<g id="edge3" class="edge">
<title>Node10-&gt;Node11</title>
<path fill="none" stroke="#000000" d="M83.7307,-362.7307C73.803,-352.803 60.6847,-339.6847 49.5637,-328.5637"/>
<polygon fill="#000000" stroke="#000000" points="51.7933,-325.8436 42.2473,-321.2473 46.8436,-330.7933 51.7933,-325.8436"/>
</g>
<!-- Node12 -->
<g id="node13" class="node">
<title>Node12</title>
<ellipse fill="none" stroke="#000000" cx="99" cy="-306" rx="27" ry="18"/>
<text text-anchor="middle" x="99" y="-301.8" font-family="Times,serif" font-size="14.00" fill="#000000">c</text>
</g>
<!-- Node10&#45;&gt;Node12 -->
<g id="edge4" class="edge">
<title>Node10-&gt;Node12</title>
<path fill="none" stroke="#000000" d="M99,-359.8314C99,-352.131 99,-342.9743 99,-334.4166"/>
<polygon fill="#000000" stroke="#000000" points="102.5001,-334.4132 99,-324.4133 95.5001,-334.4133 102.5001,-334.4132"/>
</g>
<!-- Node25 -->
<g id="node21" class="node">
<title>Node25</title>
<ellipse fill="none" stroke="#000000" cx="344" cy="-810" rx="27" ry="18"/>
<text text-anchor="middle" x="344" y="-805.8" font-family="Times,serif" font-size="14.00" fill="#000000">=&gt;</text>
</g>
<!-- Node24&#45;&gt;Node25 -->
<g id="edge19" class="edge">
<title>Node24-&gt;Node25</title>
<path fill="none" stroke="#000000" d="M344,-863.8314C344,-856.131 344,-846.9743 344,-838.4166"/>
<polygon fill="#000000" stroke="#000000" points="347.5001,-838.4132 344,-828.4133 340.5001,-838.4133 347.5001,-838.4132"/>
</g>
<!-- Node26 -->
<g id="node22" class="node">
<title>Node26</title>
<ellipse fill="none" stroke="#000000" cx="416" cy="-810" rx="27" ry="18"/>
<text text-anchor="middle" x="416" y="-805.8" font-family="Times,serif" font-size="14.00" fill="#000000">I</text>
</g>
<!-- Node24&#45;&gt;Node26 -->
<g id="edge60" class="edge">
<title>Node24-&gt;Node26</title>
<path fill="none" stroke="#000000" d="M359.2693,-866.7307C369.197,-856.803 382.3153,-843.6847 393.4363,-832.5637"/>
<polygon fill="#000000" stroke="#000000" points="396.1564,-834.7933 400.7527,-825.2473 391.2067,-829.8436 396.1564,-834.7933"/>
</g>
<!-- Node27 -->
<g id="node23" class="node">
<title>Node27</title>
<ellipse fill="none" stroke="#000000" cx="380" cy="-738" rx="27" ry="18"/>
<text text-anchor="middle" x="380" y="-733.8" font-family="Times,serif" font-size="14.00" fill="#000000">E</text>
</g>
<!-- Node26&#45;&gt;Node27 -->
<g id="edge37" class="edge">
<title>Node26-&gt;Node27</title>
<path fill="none" stroke="#000000" d="M407.2854,-792.5708C403.0403,-784.0807 397.8464,-773.6929 393.1337,-764.2674"/>
<polygon fill="#000000" stroke="#000000" points="396.237,-762.6477 388.6343,-755.2687 389.976,-765.7782 396.237,-762.6477"/>
</g>
<!-- Node50 -->
<g id="node41" class="node">
<title>Node50</title>
<ellipse fill="none" stroke="#000000" cx="452" cy="-738" rx="27" ry="18"/>
<text text-anchor="middle" x="452" y="-733.8" font-family="Times,serif" font-size="14.00" fill="#000000">I'</text>
</g>
<!-- Node26&#45;&gt;Node50 -->
<g id="edge59" class="edge">
<title>Node26-&gt;Node50</title>
<path fill="none" stroke="#000000" d="M424.7146,-792.5708C428.9597,-784.0807 434.1536,-773.6929 438.8663,-764.2674"/>
<polygon fill="#000000" stroke="#000000" points="442.024,-765.7782 443.3657,-755.2687 435.763,-762.6477 442.024,-765.7782"/>
</g>
<!-- Node28 -->
<g id="node24" class="node">
<title>Node28</title>
<ellipse fill="none" stroke="#000000" cx="308" cy="-666" rx="27" ry="18"/>
<text text-anchor="middle" x="308" y="-661.8" font-family="Times,serif" font-size="14.00" fill="#000000">T</text>
</g>
<!-- Node27&#45;&gt;Node28 -->
<g id="edge35" class="edge">
<title>Node27-&gt;Node28</title>
<path fill="none" stroke="#000000" d="M364.7307,-722.7307C354.803,-712.803 341.6847,-699.6847 330.5637,-688.5637"/>
<polygon fill="#000000" stroke="#000000" points="332.7933,-685.8436 323.2473,-681.2473 327.8436,-690.7933 332.7933,-685.8436"/>
</g>
<!-- Node48 -->
<g id="node40" class="node">
<title>Node48</title>
<ellipse fill="none" stroke="#000000" cx="380" cy="-666" rx="27" ry="18"/>
<text text-anchor="middle" x="380" y="-661.8" font-family="Times,serif" font-size="14.00" fill="#000000">E'</text>
</g>
<!-- Node27&#45;&gt;Node48 -->
<g id="edge36" class="edge">
<title>Node27-&gt;Node48</title>
<path fill="none" stroke="#000000" d="M380,-719.8314C380,-712.131 380,-702.9743 380,-694.4166"/>
<polygon fill="#000000" stroke="#000000" points="383.5001,-694.4132 380,-684.4133 376.5001,-694.4133 383.5001,-694.4132"/>
</g>
<!-- Node29 -->
<g id="node25" class="node">
<title>Node29</title>
<ellipse fill="none" stroke="#000000" cx="297" cy="-594" rx="27" ry="18"/>
<text text-anchor="middle" x="297" y="-589.8" font-family="Times,serif" font-size="14.00" fill="#000000">F</text>
</g>
<!-- Node28&#45;&gt;Node29 -->
<g id="edge33" class="edge">
<title>Node28-&gt;Node29</title>
<path fill="none" stroke="#000000" d="M305.2242,-647.8314C304.0297,-640.0125 302.6058,-630.6923 301.2812,-622.0221"/>
<polygon fill="#000000" stroke="#000000" points="304.707,-621.2701 299.7368,-611.9134 297.7873,-622.3273 304.707,-621.2701"/>
</g>
<!-- Node46 -->
<g id="node39" class="node">
<title>Node46</title>
<ellipse fill="none" stroke="#000000" cx="369" cy="-594" rx="27" ry="18"/>
<text text-anchor="middle" x="369" y="-589.8" font-family="Times,serif" font-size="14.00" fill="#000000">T'</text>
</g>
<!-- Node28&#45;&gt;Node46 -->
<g id="edge34" class="edge">
<title>Node28-&gt;Node46</title>
<path fill="none" stroke="#000000" d="M321.5379,-650.0209C329.5933,-640.5128 339.9633,-628.2728 348.9544,-617.6604"/>
<polygon fill="#000000" stroke="#000000" points="351.7062,-619.8268 355.5,-609.9345 346.3653,-615.3019 351.7062,-619.8268"/>
</g>
<!-- Node30 -->
<g id="node26" class="node">
<title>Node30</title>
<ellipse fill="none" stroke="#000000" cx="225" cy="-522" rx="27" ry="18"/>
<text text-anchor="middle" x="225" y="-517.8" font-family="Times,serif" font-size="14.00" fill="#000000">(</text>
</g>
<!-- Node29&#45;&gt;Node30 -->
<g id="edge20" class="edge">
<title>Node29-&gt;Node30</title>
<path fill="none" stroke="#000000" d="M281.7307,-578.7307C271.803,-568.803 258.6847,-555.6847 247.5637,-544.5637"/>
<polygon fill="#000000" stroke="#000000" points="249.7933,-541.8436 240.2473,-537.2473 244.8436,-546.7933 249.7933,-541.8436"/>
</g>
<!-- Node31 -->
<g id="node27" class="node">
<title>Node31</title>
<ellipse fill="none" stroke="#000000" cx="297" cy="-522" rx="27" ry="18"/>
<text text-anchor="middle" x="297" y="-517.8" font-family="Times,serif" font-size="14.00" fill="#000000">I</text>
</g>
<!-- Node29&#45;&gt;Node31 -->
<g id="edge31" class="edge">
<title>Node29-&gt;Node31</title>
<path fill="none" stroke="#000000" d="M297,-575.8314C297,-568.131 297,-558.9743 297,-550.4166"/>
<polygon fill="#000000" stroke="#000000" points="300.5001,-550.4132 297,-540.4133 293.5001,-550.4133 300.5001,-550.4132"/>
</g>
<!-- Node45 -->
<g id="node38" class="node">
<title>Node45</title>
<ellipse fill="none" stroke="#000000" cx="369" cy="-522" rx="27" ry="18"/>
<text text-anchor="middle" x="369" y="-517.8" font-family="Times,serif" font-size="14.00" fill="#000000">)</text>
</g>
<!-- Node29&#45;&gt;Node45 -->
<g id="edge32" class="edge">
<title>Node29-&gt;Node45</title>
<path fill="none" stroke="#000000" d="M312.2693,-578.7307C322.197,-568.803 335.3153,-555.6847 346.4363,-544.5637"/>
<polygon fill="#000000" stroke="#000000" points="349.1564,-546.7933 353.7527,-537.2473 344.2067,-541.8436 349.1564,-546.7933"/>
</g>
<!-- Node32 -->
<g id="node28" class="node">
<title>Node32</title>
<ellipse fill="none" stroke="#000000" cx="225" cy="-450" rx="27" ry="18"/>
<text text-anchor="middle" x="225" y="-445.8" font-family="Times,serif" font-size="14.00" fill="#000000">E</text>
</g>
<!-- Node31&#45;&gt;Node32 -->
<g id="edge29" class="edge">
<title>Node31-&gt;Node32</title>
<path fill="none" stroke="#000000" d="M281.7307,-506.7307C271.803,-496.803 258.6847,-483.6847 247.5637,-472.5637"/>
<polygon fill="#000000" stroke="#000000" points="249.7933,-469.8436 240.2473,-465.2473 244.8436,-474.7933 249.7933,-469.8436"/>
</g>
<!-- Node43 -->
<g id="node37" class="node">
<title>Node43</title>
<ellipse fill="none" stroke="#000000" cx="297" cy="-450" rx="27" ry="18"/>
<text text-anchor="middle" x="297" y="-445.8" font-family="Times,serif" font-size="14.00" fill="#000000">I'</text>
</g>
<!-- Node31&#45;&gt;Node43 -->
<g id="edge30" class="edge">
<title>Node31-&gt;Node43</title>
<path fill="none" stroke="#000000" d="M297,-503.8314C297,-496.131 297,-486.9743 297,-478.4166"/>
<polygon fill="#000000" stroke="#000000" points="300.5001,-478.4132 297,-468.4133 293.5001,-478.4133 300.5001,-478.4132"/>
</g>
<!-- Node33 -->
<g id="node29" class="node">
<title>Node33</title>
<ellipse fill="none" stroke="#000000" cx="171" cy="-378" rx="27" ry="18"/>
<text text-anchor="middle" x="171" y="-373.8" font-family="Times,serif" font-size="14.00" fill="#000000">T</text>
</g>
<!-- Node32&#45;&gt;Node33 -->
<g id="edge27" class="edge">
<title>Node32-&gt;Node33</title>
<path fill="none" stroke="#000000" d="M212.7466,-433.6621C205.8423,-424.4564 197.0823,-412.7764 189.3715,-402.4953"/>
<polygon fill="#000000" stroke="#000000" points="192.005,-400.1733 183.2049,-394.2733 186.405,-404.3733 192.005,-400.1733"/>
</g>
<!-- Node41 -->
<g id="node36" class="node">
<title>Node41</title>
<ellipse fill="none" stroke="#000000" cx="243" cy="-378" rx="27" ry="18"/>
<text text-anchor="middle" x="243" y="-373.8" font-family="Times,serif" font-size="14.00" fill="#000000">E'</text>
</g>
<!-- Node32&#45;&gt;Node41 -->
<g id="edge28" class="edge">
<title>Node32-&gt;Node41</title>
<path fill="none" stroke="#000000" d="M229.4494,-432.2022C231.4398,-424.2406 233.8332,-414.6671 236.0511,-405.7957"/>
<polygon fill="#000000" stroke="#000000" points="239.5094,-406.3929 238.5394,-395.8425 232.7184,-404.6951 239.5094,-406.3929"/>
</g>
<!-- Node34 -->
<g id="node30" class="node">
<title>Node34</title>
<ellipse fill="none" stroke="#000000" cx="171" cy="-306" rx="27" ry="18"/>
<text text-anchor="middle" x="171" y="-301.8" font-family="Times,serif" font-size="14.00" fill="#000000">F</text>
</g>
<!-- Node33&#45;&gt;Node34 -->
<g id="edge25" class="edge">
<title>Node33-&gt;Node34</title>
<path fill="none" stroke="#000000" d="M171,-359.8314C171,-352.131 171,-342.9743 171,-334.4166"/>
<polygon fill="#000000" stroke="#000000" points="174.5001,-334.4132 171,-324.4133 167.5001,-334.4133 174.5001,-334.4132"/>
</g>
<!-- Node39 -->
<g id="node35" class="node">
<title>Node39</title>
<ellipse fill="none" stroke="#000000" cx="243" cy="-306" rx="27" ry="18"/>
<text text-anchor="middle" x="243" y="-301.8" font-family="Times,serif" font-size="14.00" fill="#000000">T'</text>
</g>
<!-- Node33&#45;&gt;Node39 -->
<g id="edge26" class="edge">
<title>Node33-&gt;Node39</title>
<path fill="none" stroke="#000000" d="M186.2693,-362.7307C196.197,-352.803 209.3153,-339.6847 220.4363,-328.5637"/>
<polygon fill="#000000" stroke="#000000" points="223.1564,-330.7933 227.7527,-321.2473 218.2067,-325.8436 223.1564,-330.7933"/>
</g>
<!-- Node35 -->
<g id="node31" class="node">
<title>Node35</title>
<ellipse fill="none" stroke="#000000" cx="117" cy="-234" rx="27" ry="18"/>
<text text-anchor="middle" x="117" y="-229.8" font-family="Times,serif" font-size="14.00" fill="#000000">c</text>
</g>
<!-- Node34&#45;&gt;Node35 -->
<g id="edge21" class="edge">
<title>Node34-&gt;Node35</title>
<path fill="none" stroke="#000000" d="M158.7466,-289.6621C151.8423,-280.4564 143.0823,-268.7764 135.3715,-258.4953"/>
<polygon fill="#000000" stroke="#000000" points="138.005,-256.1733 129.2049,-250.2733 132.405,-260.3733 138.005,-256.1733"/>
</g>
<!-- Node36 -->
<g id="node32" class="node">
<title>Node36</title>
<ellipse fill="none" stroke="#000000" cx="189" cy="-234" rx="27" ry="18"/>
<text text-anchor="middle" x="189" y="-229.8" font-family="Times,serif" font-size="14.00" fill="#000000">U</text>
</g>
<!-- Node34&#45;&gt;Node36 -->
<g id="edge24" class="edge">
<title>Node34-&gt;Node36</title>
<path fill="none" stroke="#000000" d="M175.4494,-288.2022C177.4398,-280.2406 179.8332,-270.6671 182.0511,-261.7957"/>
<polygon fill="#000000" stroke="#000000" points="185.5094,-262.3929 184.5394,-251.8425 178.7184,-260.6951 185.5094,-262.3929"/>
</g>
<!-- Node37 -->
<g id="node33" class="node">
<title>Node37</title>
<ellipse fill="none" stroke="#000000" cx="135" cy="-162" rx="27" ry="18"/>
<text text-anchor="middle" x="135" y="-157.8" font-family="Times,serif" font-size="14.00" fill="#000000">in</text>
</g>
<!-- Node36&#45;&gt;Node37 -->
<g id="edge22" class="edge">
<title>Node36-&gt;Node37</title>
<path fill="none" stroke="#000000" d="M176.7466,-217.6621C169.8423,-208.4564 161.0823,-196.7764 153.3715,-186.4953"/>
<polygon fill="#000000" stroke="#000000" points="156.005,-184.1733 147.2049,-178.2733 150.405,-188.3733 156.005,-184.1733"/>
</g>
<!-- Node38 -->
<g id="node34" class="node">
<title>Node38</title>
<ellipse fill="none" stroke="#000000" cx="207" cy="-162" rx="27" ry="18"/>
<text text-anchor="middle" x="207" y="-157.8" font-family="Times,serif" font-size="14.00" fill="#000000">d</text>
</g>
<!-- Node36&#45;&gt;Node38 -->
<g id="edge23" class="edge">
<title>Node36-&gt;Node38</title>
<path fill="none" stroke="#000000" d="M193.4494,-216.2022C195.4398,-208.2406 197.8332,-198.6671 200.0511,-189.7957"/>
<polygon fill="#000000" stroke="#000000" points="203.5094,-190.3929 202.5394,-179.8425 196.7184,-188.6951 203.5094,-190.3929"/>
</g>
<!-- Node51 -->
<g id="node42" class="node">
<title>Node51</title>
<ellipse fill="none" stroke="#000000" cx="452" cy="-666" rx="27" ry="18"/>
<text text-anchor="middle" x="452" y="-661.8" font-family="Times,serif" font-size="14.00" fill="#000000">=&gt;</text>
</g>
<!-- Node50&#45;&gt;Node51 -->
<g id="edge38" class="edge">
<title>Node50-&gt;Node51</title>
<path fill="none" stroke="#000000" d="M452,-719.8314C452,-712.131 452,-702.9743 452,-694.4166"/>
<polygon fill="#000000" stroke="#000000" points="455.5001,-694.4132 452,-684.4133 448.5001,-694.4133 455.5001,-694.4132"/>
</g>
<!-- Node52 -->
<g id="node43" class="node">
<title>Node52</title>
<ellipse fill="none" stroke="#000000" cx="524" cy="-666" rx="27" ry="18"/>
<text text-anchor="middle" x="524" y="-661.8" font-family="Times,serif" font-size="14.00" fill="#000000">I</text>
</g>
<!-- Node50&#45;&gt;Node52 -->
<g id="edge58" class="edge">
<title>Node50-&gt;Node52</title>
<path fill="none" stroke="#000000" d="M467.2693,-722.7307C477.197,-712.803 490.3153,-699.6847 501.4363,-688.5637"/>
<polygon fill="#000000" stroke="#000000" points="504.1564,-690.7933 508.7527,-681.2473 499.2067,-685.8436 504.1564,-690.7933"/>
</g>
<!-- Node53 -->
<g id="node44" class="node">
<title>Node53</title>
<ellipse fill="none" stroke="#000000" cx="463" cy="-594" rx="27" ry="18"/>
<text text-anchor="middle" x="463" y="-589.8" font-family="Times,serif" font-size="14.00" fill="#000000">E</text>
</g>
<!-- Node52&#45;&gt;Node53 -->
<g id="edge56" class="edge">
<title>Node52-&gt;Node53</title>
<path fill="none" stroke="#000000" d="M510.4621,-650.0209C502.4067,-640.5128 492.0367,-628.2728 483.0456,-617.6604"/>
<polygon fill="#000000" stroke="#000000" points="485.6347,-615.3019 476.5,-609.9345 480.2938,-619.8268 485.6347,-615.3019"/>
</g>
<!-- Node76 -->
<g id="node62" class="node">
<title>Node76</title>
<ellipse fill="none" stroke="#000000" cx="535" cy="-594" rx="27" ry="18"/>
<text text-anchor="middle" x="535" y="-589.8" font-family="Times,serif" font-size="14.00" fill="#000000">I'</text>
</g>
<!-- Node52&#45;&gt;Node76 -->
<g id="edge57" class="edge">
<title>Node52-&gt;Node76</title>
<path fill="none" stroke="#000000" d="M526.7758,-647.8314C527.9703,-640.0125 529.3942,-630.6923 530.7188,-622.0221"/>
<polygon fill="#000000" stroke="#000000" points="534.2127,-622.3273 532.2632,-611.9134 527.293,-621.2701 534.2127,-622.3273"/>
</g>
<!-- Node54 -->
<g id="node45" class="node">
<title>Node54</title>
<ellipse fill="none" stroke="#000000" cx="450" cy="-522" rx="27" ry="18"/>
<text text-anchor="middle" x="450" y="-517.8" font-family="Times,serif" font-size="14.00" fill="#000000">T</text>
</g>
<!-- Node53&#45;&gt;Node54 -->
<g id="edge54" class="edge">
<title>Node53-&gt;Node54</title>
<path fill="none" stroke="#000000" d="M459.7196,-575.8314C458.3078,-568.0125 456.625,-558.6923 455.0595,-550.0221"/>
<polygon fill="#000000" stroke="#000000" points="458.4556,-549.1324 453.2344,-539.9134 451.567,-550.3762 458.4556,-549.1324"/>
</g>
<!-- Node74 -->
<g id="node61" class="node">
<title>Node74</title>
<ellipse fill="none" stroke="#000000" cx="522" cy="-522" rx="27" ry="18"/>
<text text-anchor="middle" x="522" y="-517.8" font-family="Times,serif" font-size="14.00" fill="#000000">E'</text>
</g>
<!-- Node53&#45;&gt;Node74 -->
<g id="edge55" class="edge">
<title>Node53-&gt;Node74</title>
<path fill="none" stroke="#000000" d="M476.094,-578.0209C483.8089,-568.6061 493.7189,-556.5126 502.3555,-545.973"/>
<polygon fill="#000000" stroke="#000000" points="505.3115,-547.8877 508.9426,-537.9345 499.8971,-543.4509 505.3115,-547.8877"/>
</g>
<!-- Node55 -->
<g id="node46" class="node">
<title>Node55</title>
<ellipse fill="none" stroke="#000000" cx="387" cy="-450" rx="27" ry="18"/>
<text text-anchor="middle" x="387" y="-445.8" font-family="Times,serif" font-size="14.00" fill="#000000">F</text>
</g>
<!-- Node54&#45;&gt;Node55 -->
<g id="edge52" class="edge">
<title>Node54-&gt;Node55</title>
<path fill="none" stroke="#000000" d="M436.3299,-506.3771C427.8266,-496.659 416.7387,-483.987 407.2292,-473.1191"/>
<polygon fill="#000000" stroke="#000000" points="409.8625,-470.8135 400.6434,-465.5924 404.5944,-475.423 409.8625,-470.8135"/>
</g>
<!-- Node72 -->
<g id="node60" class="node">
<title>Node72</title>
<ellipse fill="none" stroke="#000000" cx="459" cy="-450" rx="27" ry="18"/>
<text text-anchor="middle" x="459" y="-445.8" font-family="Times,serif" font-size="14.00" fill="#000000">T'</text>
</g>
<!-- Node54&#45;&gt;Node72 -->
<g id="edge53" class="edge">
<title>Node54-&gt;Node72</title>
<path fill="none" stroke="#000000" d="M452.2711,-503.8314C453.2336,-496.131 454.3782,-486.9743 455.4479,-478.4166"/>
<polygon fill="#000000" stroke="#000000" points="458.9309,-478.7702 456.6983,-468.4133 451.9849,-477.9019 458.9309,-478.7702"/>
</g>
<!-- Node56 -->
<g id="node47" class="node">
<title>Node56</title>
<ellipse fill="none" stroke="#000000" cx="315" cy="-378" rx="27" ry="18"/>
<text text-anchor="middle" x="315" y="-373.8" font-family="Times,serif" font-size="14.00" fill="#000000">(</text>
</g>
<!-- Node55&#45;&gt;Node56 -->
<g id="edge39" class="edge">
<title>Node55-&gt;Node56</title>
<path fill="none" stroke="#000000" d="M371.7307,-434.7307C361.803,-424.803 348.6847,-411.6847 337.5637,-400.5637"/>
<polygon fill="#000000" stroke="#000000" points="339.7933,-397.8436 330.2473,-393.2473 334.8436,-402.7933 339.7933,-397.8436"/>
</g>
<!-- Node57 -->
<g id="node48" class="node">
<title>Node57</title>
<ellipse fill="none" stroke="#000000" cx="387" cy="-378" rx="27" ry="18"/>
<text text-anchor="middle" x="387" y="-373.8" font-family="Times,serif" font-size="14.00" fill="#000000">I</text>
</g>
<!-- Node55&#45;&gt;Node57 -->
<g id="edge50" class="edge">
<title>Node55-&gt;Node57</title>
<path fill="none" stroke="#000000" d="M387,-431.8314C387,-424.131 387,-414.9743 387,-406.4166"/>
<polygon fill="#000000" stroke="#000000" points="390.5001,-406.4132 387,-396.4133 383.5001,-406.4133 390.5001,-406.4132"/>
</g>
<!-- Node71 -->
<g id="node59" class="node">
<title>Node71</title>
<ellipse fill="none" stroke="#000000" cx="459" cy="-378" rx="27" ry="18"/>
<text text-anchor="middle" x="459" y="-373.8" font-family="Times,serif" font-size="14.00" fill="#000000">)</text>
</g>
<!-- Node55&#45;&gt;Node71 -->
<g id="edge51" class="edge">
<title>Node55-&gt;Node71</title>
<path fill="none" stroke="#000000" d="M402.2693,-434.7307C412.197,-424.803 425.3153,-411.6847 436.4363,-400.5637"/>
<polygon fill="#000000" stroke="#000000" points="439.1564,-402.7933 443.7527,-393.2473 434.2067,-397.8436 439.1564,-402.7933"/>
</g>
<!-- Node58 -->
<g id="node49" class="node">
<title>Node58</title>
<ellipse fill="none" stroke="#000000" cx="342" cy="-306" rx="27" ry="18"/>
<text text-anchor="middle" x="342" y="-301.8" font-family="Times,serif" font-size="14.00" fill="#000000">E</text>
</g>
<!-- Node57&#45;&gt;Node58 -->
<g id="edge48" class="edge">
<title>Node57-&gt;Node58</title>
<path fill="none" stroke="#000000" d="M376.563,-361.3008C371.0765,-352.5224 364.2314,-341.5703 358.0837,-331.7339"/>
<polygon fill="#000000" stroke="#000000" points="360.9609,-329.7336 352.6929,-323.1086 355.0249,-333.4436 360.9609,-329.7336"/>
</g>
<!-- Node69 -->
<g id="node58" class="node">
<title>Node69</title>
<ellipse fill="none" stroke="#000000" cx="414" cy="-306" rx="27" ry="18"/>
<text text-anchor="middle" x="414" y="-301.8" font-family="Times,serif" font-size="14.00" fill="#000000">I'</text>
</g>
<!-- Node57&#45;&gt;Node69 -->
<g id="edge49" class="edge">
<title>Node57-&gt;Node69</title>
<path fill="none" stroke="#000000" d="M393.6742,-360.2022C396.7476,-352.0064 400.4616,-342.1024 403.8695,-333.0145"/>
<polygon fill="#000000" stroke="#000000" points="407.1685,-334.1853 407.4026,-323.593 400.6142,-331.7274 407.1685,-334.1853"/>
</g>
<!-- Node59 -->
<g id="node50" class="node">
<title>Node59</title>
<ellipse fill="none" stroke="#000000" cx="297" cy="-234" rx="27" ry="18"/>
<text text-anchor="middle" x="297" y="-229.8" font-family="Times,serif" font-size="14.00" fill="#000000">T</text>
</g>
<!-- Node58&#45;&gt;Node59 -->
<g id="edge46" class="edge">
<title>Node58-&gt;Node59</title>
<path fill="none" stroke="#000000" d="M331.563,-289.3008C326.0765,-280.5224 319.2314,-269.5703 313.0837,-259.7339"/>
<polygon fill="#000000" stroke="#000000" points="315.9609,-257.7336 307.6929,-251.1086 310.0249,-261.4436 315.9609,-257.7336"/>
</g>
<!-- Node67 -->
<g id="node57" class="node">
<title>Node67</title>
<ellipse fill="none" stroke="#000000" cx="369" cy="-234" rx="27" ry="18"/>
<text text-anchor="middle" x="369" y="-229.8" font-family="Times,serif" font-size="14.00" fill="#000000">E'</text>
</g>
<!-- Node58&#45;&gt;Node67 -->
<g id="edge47" class="edge">
<title>Node58-&gt;Node67</title>
<path fill="none" stroke="#000000" d="M348.6742,-288.2022C351.7476,-280.0064 355.4616,-270.1024 358.8695,-261.0145"/>
<polygon fill="#000000" stroke="#000000" points="362.1685,-262.1853 362.4026,-251.593 355.6142,-259.7274 362.1685,-262.1853"/>
</g>
<!-- Node60 -->
<g id="node51" class="node">
<title>Node60</title>
<ellipse fill="none" stroke="#000000" cx="288" cy="-162" rx="27" ry="18"/>
<text text-anchor="middle" x="288" y="-157.8" font-family="Times,serif" font-size="14.00" fill="#000000">F</text>
</g>
<!-- Node59&#45;&gt;Node60 -->
<g id="edge44" class="edge">
<title>Node59-&gt;Node60</title>
<path fill="none" stroke="#000000" d="M294.7289,-215.8314C293.7664,-208.131 292.6218,-198.9743 291.5521,-190.4166"/>
<polygon fill="#000000" stroke="#000000" points="295.0151,-189.9019 290.3017,-180.4133 288.0691,-190.7702 295.0151,-189.9019"/>
</g>
<!-- Node65 -->
<g id="node56" class="node">
<title>Node65</title>
<ellipse fill="none" stroke="#000000" cx="360" cy="-162" rx="27" ry="18"/>
<text text-anchor="middle" x="360" y="-157.8" font-family="Times,serif" font-size="14.00" fill="#000000">T'</text>
</g>
<!-- Node59&#45;&gt;Node65 -->
<g id="edge45" class="edge">
<title>Node59-&gt;Node65</title>
<path fill="none" stroke="#000000" d="M310.6701,-218.3771C319.1734,-208.659 330.2613,-195.987 339.7708,-185.1191"/>
<polygon fill="#000000" stroke="#000000" points="342.4056,-187.423 346.3566,-177.5924 337.1375,-182.8135 342.4056,-187.423"/>
</g>
<!-- Node61 -->
<g id="node52" class="node">
<title>Node61</title>
<ellipse fill="none" stroke="#000000" cx="252" cy="-90" rx="27" ry="18"/>
<text text-anchor="middle" x="252" y="-85.8" font-family="Times,serif" font-size="14.00" fill="#000000">d</text>
</g>
<!-- Node60&#45;&gt;Node61 -->
<g id="edge40" class="edge">
<title>Node60-&gt;Node61</title>
<path fill="none" stroke="#000000" d="M279.2854,-144.5708C275.0403,-136.0807 269.8464,-125.6929 265.1337,-116.2674"/>
<polygon fill="#000000" stroke="#000000" points="268.237,-114.6477 260.6343,-107.2687 261.976,-117.7782 268.237,-114.6477"/>
</g>
<!-- Node62 -->
<g id="node53" class="node">
<title>Node62</title>
<ellipse fill="none" stroke="#000000" cx="324" cy="-90" rx="27" ry="18"/>
<text text-anchor="middle" x="324" y="-85.8" font-family="Times,serif" font-size="14.00" fill="#000000">U</text>
</g>
<!-- Node60&#45;&gt;Node62 -->
<g id="edge43" class="edge">
<title>Node60-&gt;Node62</title>
<path fill="none" stroke="#000000" d="M296.7146,-144.5708C300.9597,-136.0807 306.1536,-125.6929 310.8663,-116.2674"/>
<polygon fill="#000000" stroke="#000000" points="314.024,-117.7782 315.3657,-107.2687 307.763,-114.6477 314.024,-117.7782"/>
</g>
<!-- Node63 -->
<g id="node54" class="node">
<title>Node63</title>
<ellipse fill="none" stroke="#000000" cx="288" cy="-18" rx="27" ry="18"/>
<text text-anchor="middle" x="288" y="-13.8" font-family="Times,serif" font-size="14.00" fill="#000000">in</text>
</g>
<!-- Node62&#45;&gt;Node63 -->
<g id="edge41" class="edge">
<title>Node62-&gt;Node63</title>
<path fill="none" stroke="#000000" d="M315.2854,-72.5708C311.0403,-64.0807 305.8464,-53.6929 301.1337,-44.2674"/>
<polygon fill="#000000" stroke="#000000" points="304.237,-42.6477 296.6343,-35.2687 297.976,-45.7782 304.237,-42.6477"/>
</g>
<!-- Node64 -->
<g id="node55" class="node">
<title>Node64</title>
<ellipse fill="none" stroke="#000000" cx="360" cy="-18" rx="27" ry="18"/>
<text text-anchor="middle" x="360" y="-13.8" font-family="Times,serif" font-size="14.00" fill="#000000">f</text>
</g>
<!-- Node62&#45;&gt;Node64 -->
<g id="edge42" class="edge">
<title>Node62-&gt;Node64</title>
<path fill="none" stroke="#000000" d="M332.7146,-72.5708C336.9597,-64.0807 342.1536,-53.6929 346.8663,-44.2674"/>
<polygon fill="#000000" stroke="#000000" points="350.024,-45.7782 351.3657,-35.2687 343.763,-42.6477 350.024,-45.7782"/>
</g>
</g>
</svg>