<?xml version="1.0" encoding="UTF-8" standalone="no"?><!DOCTYPE svg PUBLIC "-//W3C//DTD SVG 1.1//EN" "http://www.w3.org/Graphics/SVG/1.1/DTD/svg11.dtd"><!-- Generated by graphviz version 2.40.1 (20161225.0304)
 --><!-- Title: tree Pages: 1 --><svg xmlns="http://www.w3.org/2000/svg" xmlns:xlink="http://www.w3.org/1999/xlink" width="548pt" height="1052pt" viewBox="0.00 0.00 548.00 1052.00">
<g id="graph0" class="graph" transform="scale(1 1) rotate(0) translate(4 1048)">
<title>tree</title>
<polygon fill="#ffffff" stroke="transparent" points="-4,4 -4,-1048 544,-1048 544,4 -4,4"/>
<!-- Node0 -->
<g id="node1" class="node">
<title>Node0</title>
<ellipse fill="none" stroke="#000000" cx="225" cy="-1026" rx="27" ry="18"/>
<text text-anchor="middle" x="225" y="-1021.8" font-family="Times,serif" font-size="14.00" fill="#000000">E</text>
</g>
<!-- Node1 -->
<g id="node2" class="node">
<title>Node1</title>
<ellipse fill="none" stroke="#000000" cx="189" cy="-954" rx="27" ry="18"/>
<text text-anchor="middle" x="189" y="-949.8" font-family="Times,serif" font-size="14.00" fill="#000000">T</text>
</g>
<!-- Node0&#45;&gt;Node1 -->
<g id="edge14" class="edge">
<title>Node0-&gt;Node1</title>
<path fill="none" stroke="#000000" d="M216.2854,-1008.5708C212.0403,-1000.0807 206.8464,-989.6929 202.1337,-980.2674"/>
<polygon fill="#000000" stroke="#000000" points="205.237,-978.6477 197.6343,-971.2687 198.976,-981.7782 205.237,-978.6477"/>
</g>
<!-- Node18 -->
<g id="node16" class="node">
<title>Node18</title>
<ellipse fill="none" stroke="#000000" cx="297" cy="-954" rx="27" ry="18"/>
<text text-anchor="middle" x="297" y="-949.8" font-family="Times,serif" font-size="14.00" fill="#000000">EP</text>
</g>
<!-- Node0&#45;&gt;Node18 -->
<g id="edge53" class="edge">
<title>Node0-&gt;Node18</title>
<path fill="none" stroke="#000000" d="M240.2693,-1010.7307C250.197,-1000.803 263.3153,-987.6847 274.4363,-976.5637"/>
<polygon fill="#000000" stroke="#000000" points="277.1564,-978.7933 281.7527,-969.2473 272.2067,-973.8436 277.1564,-978.7933"/>
</g>
<!-- Node2 -->
<g id="node3" class="node">
<title>Node2</title>
<ellipse fill="none" stroke="#000000" cx="117" cy="-882" rx="27" ry="18"/>
<text text-anchor="middle" x="117" y="-877.8" font-family="Times,serif" font-size="14.00" fill="#000000">F</text>
</g>
<!-- Node1&#45;&gt;Node2 -->
<g id="edge12" class="edge">
<title>Node1-&gt;Node2</title>
<path fill="none" stroke="#000000" d="M173.7307,-938.7307C163.803,-928.803 150.6847,-915.6847 139.5637,-904.5637"/>
<polygon fill="#000000" stroke="#000000" points="141.7933,-901.8436 132.2473,-897.2473 136.8436,-906.7933 141.7933,-901.8436"/>
</g>
<!-- Node16 -->
<g id="node15" class="node">
<title>Node16</title>
<ellipse fill="none" stroke="#000000" cx="189" cy="-882" rx="27" ry="18"/>
<text text-anchor="middle" x="189" y="-877.8" font-family="Times,serif" font-size="14.00" fill="#000000">TP</text>
</g>
<!-- Node1&#45;&gt;Node16 -->
<g id="edge13" class="edge">
<title>Node1-&gt;Node16</title>
<path fill="none" stroke="#000000" d="M189,-935.8314C189,-928.131 189,-918.9743 189,-910.4166"/>
<polygon fill="#000000" stroke="#000000" points="192.5001,-910.4132 189,-900.4133 185.5001,-910.4133 192.5001,-910.4132"/>
</g>
<!-- Node3 -->
<g id="node4" class="node">
<title>Node3</title>
<ellipse fill="none" stroke="#000000" cx="45" cy="-810" rx="27" ry="18"/>
<text text-anchor="middle" x="45" y="-805.8" font-family="Times,serif" font-size="14.00" fill="#000000">(</text>
</g>
<!-- Node2&#45;&gt;Node3 -->
<g id="edge1" class="edge">
<title>Node2-&gt;Node3</title>
<path fill="none" stroke="#000000" d="M101.7307,-866.7307C91.803,-856.803 78.6847,-843.6847 67.5637,-832.5637"/>
<polygon fill="#000000" stroke="#000000" points="69.7933,-829.8436 60.2473,-825.2473 64.8436,-834.7933 69.7933,-829.8436"/>
</g>
<!-- Node4 -->
<g id="node5" class="node">
<title>Node4</title>
<ellipse fill="none" stroke="#000000" cx="117" cy="-810" rx="27" ry="18"/>
<text text-anchor="middle" x="117" y="-805.8" font-family="Times,serif" font-size="14.00" fill="#000000">E</text>
</g>
<!-- Node2&#45;&gt;Node4 -->
<g id="edge10" class="edge">
<title>Node2-&gt;Node4</title>
<path fill="none" stroke="#000000" d="M117,-863.8314C117,-856.131 117,-846.9743 117,-838.4166"/>
<polygon fill="#000000" stroke="#000000" points="120.5001,-838.4132 117,-828.4133 113.5001,-838.4133 120.5001,-838.4132"/>
</g>
<!-- Node15 -->
<g id="node14" class="node">
<title>Node15</title>
<ellipse fill="none" stroke="#000000" cx="189" cy="-810" rx="27" ry="18"/>
<text text-anchor="middle" x="189" y="-805.8" font-family="Times,serif" font-size="14.00" fill="#000000">)</text>
</g>
<!-- Node2&#45;&gt;Node15 -->
<g id="edge11" class="edge">
<title>Node2-&gt;Node15</title>
<path fill="none" stroke="#000000" d="M132.2693,-866.7307C142.197,-856.803 155.3153,-843.6847 166.4363,-832.5637"/>
<polygon fill="#000000" stroke="#000000" points="169.1564,-834.7933 173.7527,-825.2473 164.2067,-829.8436 169.1564,-834.7933"/>
</g>
<!-- Node5 -->
<g id="node6" class="node">
<title>Node5</title>
<ellipse fill="none" stroke="#000000" cx="99" cy="-738" rx="27" ry="18"/>
<text text-anchor="middle" x="99" y="-733.8" font-family="Times,serif" font-size="14.00" fill="#000000">T</text>
</g>
<!-- Node4&#45;&gt;Node5 -->
<g id="edge8" class="edge">
<title>Node4-&gt;Node5</title>
<path fill="none" stroke="#000000" d="M112.5506,-792.2022C110.5602,-784.2406 108.1668,-774.6671 105.9489,-765.7957"/>
<polygon fill="#000000" stroke="#000000" points="109.2816,-764.6951 103.4606,-755.8425 102.4906,-766.3929 109.2816,-764.6951"/>
</g>
<!-- Node13 -->
<g id="node13" class="node">
<title>Node13</title>
<ellipse fill="none" stroke="#000000" cx="171" cy="-738" rx="27" ry="18"/>
<text text-anchor="middle" x="171" y="-733.8" font-family="Times,serif" font-size="14.00" fill="#000000">EP</text>
</g>
<!-- Node4&#45;&gt;Node13 -->
<g id="edge9" class="edge">
<title>Node4-&gt;Node13</title>
<path fill="none" stroke="#000000" d="M129.2534,-793.6621C136.1577,-784.4564 144.9177,-772.7764 152.6285,-762.4953"/>
<polygon fill="#000000" stroke="#000000" points="155.595,-764.3733 158.7951,-754.2733 149.995,-760.1733 155.595,-764.3733"/>
</g>
<!-- Node6 -->
<g id="node7" class="node">
<title>Node6</title>
<ellipse fill="none" stroke="#000000" cx="63" cy="-666" rx="27" ry="18"/>
<text text-anchor="middle" x="63" y="-661.8" font-family="Times,serif" font-size="14.00" fill="#000000">F</text>
</g>
<!-- Node5&#45;&gt;Node6 -->
<g id="edge6" class="edge">
<title>Node5-&gt;Node6</title>
<path fill="none" stroke="#000000" d="M90.2854,-720.5708C86.0403,-712.0807 80.8464,-701.6929 76.1337,-692.2674"/>
<polygon fill="#000000" stroke="#000000" points="79.237,-690.6477 71.6343,-683.2687 72.976,-693.7782 79.237,-690.6477"/>
</g>
<!-- Node11 -->
<g id="node12" class="node">
<title>Node11</title>
<ellipse fill="none" stroke="#000000" cx="135" cy="-666" rx="27" ry="18"/>
<text text-anchor="middle" x="135" y="-661.8" font-family="Times,serif" font-size="14.00" fill="#000000">TP</text>
</g>
<!-- Node5&#45;&gt;Node11 -->
<g id="edge7" class="edge">
<title>Node5-&gt;Node11</title>
<path fill="none" stroke="#000000" d="M107.7146,-720.5708C111.9597,-712.0807 117.1536,-701.6929 121.8663,-692.2674"/>
<polygon fill="#000000" stroke="#000000" points="125.024,-693.7782 126.3657,-683.2687 118.763,-690.6477 125.024,-693.7782"/>
</g>
<!-- Node7 -->
<g id="node8" class="node">
<title>Node7</title>
<ellipse fill="none" stroke="#000000" cx="27" cy="-594" rx="27" ry="18"/>
<text text-anchor="middle" x="27" y="-589.8" font-family="Times,serif" font-size="14.00" fill="#000000">a</text>
</g>
<!-- Node6&#45;&gt;Node7 -->
<g id="edge2" class="edge">
<title>Node6-&gt;Node7</title>
<path fill="none" stroke="#000000" d="M54.2854,-648.5708C50.0403,-640.0807 44.8464,-629.6929 40.1337,-620.2674"/>
<polygon fill="#000000" stroke="#000000" points="43.237,-618.6477 35.6343,-611.2687 36.976,-621.7782 43.237,-618.6477"/>
</g>
<!-- Node8 -->
<g id="node9" class="node">
<title>Node8</title>
<ellipse fill="none" stroke="#000000" cx="99" cy="-594" rx="27" ry="18"/>
<text text-anchor="middle" x="99" y="-589.8" font-family="Times,serif" font-size="14.00" fill="#000000">U</text>
</g>
<!-- Node6&#45;&gt;Node8 -->
<g id="edge5" class="edge">
<title>Node6-&gt;Node8</title>
<path fill="none" stroke="#000000" d="M71.7146,-648.5708C75.9597,-640.0807 81.1536,-629.6929 85.8663,-620.2674"/>
<polygon fill="#000000" stroke="#000000" points="89.024,-621.7782 90.3657,-611.2687 82.763,-618.6477 89.024,-621.7782"/>
</g>
<!-- Node9 -->
<g id="node10" class="node">
<title>Node9</title>
<ellipse fill="none" stroke="#000000" cx="63" cy="-522" rx="27" ry="18"/>
<text text-anchor="middle" x="63" y="-517.8" font-family="Times,serif" font-size="14.00" fill="#000000">in</text>
</g>
<!-- Node8&#45;&gt;Node9 -->
<g id="edge3" class="edge">
<title>Node8-&gt;Node9</title>
<path fill="none" stroke="#000000" d="M90.2854,-576.5708C86.0403,-568.0807 80.8464,-557.6929 76.1337,-548.2674"/>
<polygon fill="#000000" stroke="#000000" points="79.237,-546.6477 71.6343,-539.2687 72.976,-549.7782 79.237,-546.6477"/>
</g>
<!-- Node10 -->
<g id="node11" class="node">
<title>Node10</title>
<ellipse fill="none" stroke="#000000" cx="135" cy="-522" rx="27" ry="18"/>
<text text-anchor="middle" x="135" y="-517.8" font-family="Times,serif" font-size="14.00" fill="#000000">b</text>
</g>
<!-- Node8&#45;&gt;Node10 -->
<g id="edge4" class="edge">
<title>Node8-&gt;Node10</title>
<path fill="none" stroke="#000000" d="M107.7146,-576.5708C111.9597,-568.0807 117.1536,-557.6929 121.8663,-548.2674"/>
<polygon fill="#000000" stroke="#000000" points="125.024,-549.7782 126.3657,-539.2687 118.763,-546.6477 125.024,-549.7782"/>
</g>
<!-- Node19 -->
<g id="node17" class="node">
<title>Node19</title>
<ellipse fill="none" stroke="#000000" cx="261" cy="-882" rx="27" ry="18"/>
<text text-anchor="middle" x="261" y="-877.8" font-family="Times,serif" font-size="14.00" fill="#000000">or</text>
</g>
<!-- Node18&#45;&gt;Node19 -->
<g id="edge15" class="edge">
<title>Node18-&gt;Node19</title>
<path fill="none" stroke="#000000" d="M288.2854,-936.5708C284.0403,-928.0807 278.8464,-917.6929 274.1337,-908.2674"/>
<polygon fill="#000000" stroke="#000000" points="277.237,-906.6477 269.6343,-899.2687 270.976,-909.7782 277.237,-906.6477"/>
</g>
<!-- Node20 -->
<g id="node18" class="node">
<title>Node20</title>
<ellipse fill="none" stroke="#000000" cx="333" cy="-882" rx="27" ry="18"/>
<text text-anchor="middle" x="333" y="-877.8" font-family="Times,serif" font-size="14.00" fill="#000000">T</text>
</g>
<!-- Node18&#45;&gt;Node20 -->
<g id="edge51" class="edge">
<title>Node18-&gt;Node20</title>
<path fill="none" stroke="#000000" d="M305.7146,-936.5708C309.9597,-928.0807 315.1536,-917.6929 319.8663,-908.2674"/>
<polygon fill="#000000" stroke="#000000" points="323.024,-909.7782 324.3657,-899.2687 316.763,-906.6477 323.024,-909.7782"/>
</g>
<!-- Node62 -->
<g id="node54" class="node">
<title>Node62</title>
<ellipse fill="none" stroke="#000000" cx="405" cy="-882" rx="27" ry="18"/>
<text text-anchor="middle" x="405" y="-877.8" font-family="Times,serif" font-size="14.00" fill="#000000">EP</text>
</g>
<!-- Node18&#45;&gt;Node62 -->
<g id="edge52" class="edge">
<title>Node18-&gt;Node62</title>
<path fill="none" stroke="#000000" d="M316.3082,-941.1278C333.3555,-929.763 358.4019,-913.0654 377.5344,-900.3104"/>
<polygon fill="#000000" stroke="#000000" points="379.4799,-903.2199 385.8589,-894.7607 375.5969,-897.3956 379.4799,-903.2199"/>
</g>
<!-- Node21 -->
<g id="node19" class="node">
<title>Node21</title>
<ellipse fill="none" stroke="#000000" cx="297" cy="-810" rx="27" ry="18"/>
<text text-anchor="middle" x="297" y="-805.8" font-family="Times,serif" font-size="14.00" fill="#000000">F</text>
</g>
<!-- Node20&#45;&gt;Node21 -->
<g id="edge49" class="edge">
<title>Node20-&gt;Node21</title>
<path fill="none" stroke="#000000" d="M324.2854,-864.5708C320.0403,-856.0807 314.8464,-845.6929 310.1337,-836.2674"/>
<polygon fill="#000000" stroke="#000000" points="313.237,-834.6477 305.6343,-827.2687 306.976,-837.7782 313.237,-834.6477"/>
</g>
<!-- Node60 -->
<g id="node53" class="node">
<title>Node60</title>
<ellipse fill="none" stroke="#000000" cx="369" cy="-810" rx="27" ry="18"/>
<text text-anchor="middle" x="369" y="-805.8" font-family="Times,serif" font-size="14.00" fill="#000000">TP</text>
</g>
<!-- Node20&#45;&gt;Node60 -->
<g id="edge50" class="edge">
<title>Node20-&gt;Node60</title>
<path fill="none" stroke="#000000" d="M341.7146,-864.5708C345.9597,-856.0807 351.1536,-845.6929 355.8663,-836.2674"/>
<polygon fill="#000000" stroke="#000000" points="359.024,-837.7782 360.3657,-827.2687 352.763,-834.6477 359.024,-837.7782"/>
</g>
<!-- Node22 -->
<g id="node20" class="node">
<title>Node22</title>
<ellipse fill="none" stroke="#000000" cx="243" cy="-738" rx="27" ry="18"/>
<text text-anchor="middle" x="243" y="-733.8" font-family="Times,serif" font-size="14.00" fill="#000000">not</text>
</g>
<!-- Node21&#45;&gt;Node22 -->
<g id="edge16" class="edge">
<title>Node21-&gt;Node22</title>
<path fill="none" stroke="#000000" d="M284.7466,-793.6621C277.8423,-784.4564 269.0823,-772.7764 261.3715,-762.4953"/>
<polygon fill="#000000" stroke="#000000" points="264.005,-760.1733 255.2049,-754.2733 258.405,-764.3733 264.005,-760.1733"/>
</g>
<!-- Node23 -->
<g id="node21" class="node">
<title>Node23</title>
<ellipse fill="none" stroke="#000000" cx="315" cy="-738" rx="27" ry="18"/>
<text text-anchor="middle" x="315" y="-733.8" font-family="Times,serif" font-size="14.00" fill="#000000">F</text>
</g>
<!-- Node21&#45;&gt;Node23 -->
<g id="edge48" class="edge">
<title>Node21-&gt;Node23</title>
<path fill="none" stroke="#000000" d="M301.4494,-792.2022C303.4398,-784.2406 305.8332,-774.6671 308.0511,-765.7957"/>
<polygon fill="#000000" stroke="#000000" points="311.5094,-766.3929 310.5394,-755.8425 304.7184,-764.6951 311.5094,-766.3929"/>
</g>
<!-- Node24 -->
<g id="node22" class="node">
<title>Node24</title>
<ellipse fill="none" stroke="#000000" cx="243" cy="-666" rx="27" ry="18"/>
<text text-anchor="middle" x="243" y="-661.8" font-family="Times,serif" font-size="14.00" fill="#000000">(</text>
</g>
<!-- Node23&#45;&gt;Node24 -->
<g id="edge17" class="edge">
<title>Node23-&gt;Node24</title>
<path fill="none" stroke="#000000" d="M299.7307,-722.7307C289.803,-712.803 276.6847,-699.6847 265.5637,-688.5637"/>
<polygon fill="#000000" stroke="#000000" points="267.7933,-685.8436 258.2473,-681.2473 262.8436,-690.7933 267.7933,-685.8436"/>
</g>
<!-- Node25 -->
<g id="node23" class="node">
<title>Node25</title>
<ellipse fill="none" stroke="#000000" cx="315" cy="-666" rx="27" ry="18"/>
<text text-anchor="middle" x="315" y="-661.8" font-family="Times,serif" font-size="14.00" fill="#000000">E</text>
</g>
<!-- Node23&#45;&gt;Node25 -->
<g id="edge46" class="edge">
<title>Node23-&gt;Node25</title>
<path fill="none" stroke="#000000" d="M315,-719.8314C315,-712.131 315,-702.9743 315,-694.4166"/>
<polygon fill="#000000" stroke="#000000" points="318.5001,-694.4132 315,-684.4133 311.5001,-694.4133 318.5001,-694.4132"/>
</g>
<!-- Node59 -->
<g id="node52" class="node">
<title>Node59</title>
<ellipse fill="none" stroke="#000000" cx="387" cy="-666" rx="27" ry="18"/>
<text text-anchor="middle" x="387" y="-661.8" font-family="Times,serif" font-size="14.00" fill="#000000">)</text>
</g>
<!-- Node23&#45;&gt;Node59 -->
<g id="edge47" class="edge">
<title>Node23-&gt;Node59</title>
<path fill="none" stroke="#000000" d="M330.2693,-722.7307C340.197,-712.803 353.3153,-699.6847 364.4363,-688.5637"/>
<polygon fill="#000000" stroke="#000000" points="367.1564,-690.7933 371.7527,-681.2473 362.2067,-685.8436 367.1564,-690.7933"/>
</g>
<!-- Node26 -->
<g id="node24" class="node">
<title>Node26</title>
<ellipse fill="none" stroke="#000000" cx="297" cy="-594" rx="27" ry="18"/>
<text text-anchor="middle" x="297" y="-589.8" font-family="Times,serif" font-size="14.00" fill="#000000">T</text>
</g>
<!-- Node25&#45;&gt;Node26 -->
<g id="edge26" class="edge">
<title>Node25-&gt;Node26</title>
<path fill="none" stroke="#000000" d="M310.5506,-648.2022C308.5602,-640.2406 306.1668,-630.6671 303.9489,-621.7957"/>
<polygon fill="#000000" stroke="#000000" points="307.2816,-620.6951 301.4606,-611.8425 300.4906,-622.3929 307.2816,-620.6951"/>
</g>
<!-- Node36 -->
<g id="node33" class="node">
<title>Node36</title>
<ellipse fill="none" stroke="#000000" cx="405" cy="-594" rx="27" ry="18"/>
<text text-anchor="middle" x="405" y="-589.8" font-family="Times,serif" font-size="14.00" fill="#000000">EP</text>
</g>
<!-- Node25&#45;&gt;Node36 -->
<g id="edge45" class="edge">
<title>Node25-&gt;Node36</title>
<path fill="none" stroke="#000000" d="M332.3529,-652.1177C345.7997,-641.3602 364.6239,-626.3009 379.741,-614.2072"/>
<polygon fill="#000000" stroke="#000000" points="382.0781,-616.8197 387.7004,-607.8397 377.7052,-611.3536 382.0781,-616.8197"/>
</g>
<!-- Node27 -->
<g id="node25" class="node">
<title>Node27</title>
<ellipse fill="none" stroke="#000000" cx="225" cy="-522" rx="27" ry="18"/>
<text text-anchor="middle" x="225" y="-517.8" font-family="Times,serif" font-size="14.00" fill="#000000">F</text>
</g>
<!-- Node26&#45;&gt;Node27 -->
<g id="edge24" class="edge">
<title>Node26-&gt;Node27</title>
<path fill="none" stroke="#000000" d="M281.7307,-578.7307C271.803,-568.803 258.6847,-555.6847 247.5637,-544.5637"/>
<polygon fill="#000000" stroke="#000000" points="249.7933,-541.8436 240.2473,-537.2473 244.8436,-546.7933 249.7933,-541.8436"/>
</g>
<!-- Node34 -->
<g id="node32" class="node">
<title>Node34</title>
<ellipse fill="none" stroke="#000000" cx="297" cy="-522" rx="27" ry="18"/>
<text text-anchor="middle" x="297" y="-517.8" font-family="Times,serif" font-size="14.00" fill="#000000">TP</text>
</g>
<!-- Node26&#45;&gt;Node34 -->
<g id="edge25" class="edge">
<title>Node26-&gt;Node34</title>
<path fill="none" stroke="#000000" d="M297,-575.8314C297,-568.131 297,-558.9743 297,-550.4166"/>
<polygon fill="#000000" stroke="#000000" points="300.5001,-550.4132 297,-540.4133 293.5001,-550.4133 300.5001,-550.4132"/>
</g>
<!-- Node28 -->
<g id="node26" class="node">
<title>Node28</title>
<ellipse fill="none" stroke="#000000" cx="171" cy="-450" rx="27" ry="18"/>
<text text-anchor="middle" x="171" y="-445.8" font-family="Times,serif" font-size="14.00" fill="#000000">c</text>
</g>
<!-- Node27&#45;&gt;Node28 -->
<g id="edge18" class="edge">
<title>Node27-&gt;Node28</title>
<path fill="none" stroke="#000000" d="M212.7466,-505.6621C205.8423,-496.4564 197.0823,-484.7764 189.3715,-474.4953"/>
<polygon fill="#000000" stroke="#000000" points="192.005,-472.1733 183.2049,-466.2733 186.405,-476.3733 192.005,-472.1733"/>
</g>
<!-- Node29 -->
<g id="node27" class="node">
<title>Node29</title>
<ellipse fill="none" stroke="#000000" cx="243" cy="-450" rx="27" ry="18"/>
<text text-anchor="middle" x="243" y="-445.8" font-family="Times,serif" font-size="14.00" fill="#000000">U</text>
</g>
<!-- Node27&#45;&gt;Node29 -->
<g id="edge23" class="edge">
<title>Node27-&gt;Node29</title>
<path fill="none" stroke="#000000" d="M229.4494,-504.2022C231.4398,-496.2406 233.8332,-486.6671 236.0511,-477.7957"/>
<polygon fill="#000000" stroke="#000000" points="239.5094,-478.3929 238.5394,-467.8425 232.7184,-476.6951 239.5094,-478.3929"/>
</g>
<!-- Node30 -->
<g id="node28" class="node">
<title>Node30</title>
<ellipse fill="none" stroke="#000000" cx="207" cy="-378" rx="27" ry="18"/>
<text text-anchor="middle" x="207" y="-373.8" font-family="Times,serif" font-size="14.00" fill="#000000">not</text>
</g>
<!-- Node29&#45;&gt;Node30 -->
<g id="edge19" class="edge">
<title>Node29-&gt;Node30</title>
<path fill="none" stroke="#000000" d="M234.2854,-432.5708C230.0403,-424.0807 224.8464,-413.6929 220.1337,-404.2674"/>
<polygon fill="#000000" stroke="#000000" points="223.237,-402.6477 215.6343,-395.2687 216.976,-405.7782 223.237,-402.6477"/>
</g>
<!-- Node31 -->
<g id="node29" class="node">
<title>Node31</title>
<ellipse fill="none" stroke="#000000" cx="279" cy="-378" rx="27" ry="18"/>
<text text-anchor="middle" x="279" y="-373.8" font-family="Times,serif" font-size="14.00" fill="#000000">U</text>
</g>
<!-- Node29&#45;&gt;Node31 -->
<g id="edge22" class="edge">
<title>Node29-&gt;Node31</title>
<path fill="none" stroke="#000000" d="M251.7146,-432.5708C255.9597,-424.0807 261.1536,-413.6929 265.8663,-404.2674"/>
<polygon fill="#000000" stroke="#000000" points="269.024,-405.7782 270.3657,-395.2687 262.763,-402.6477 269.024,-405.7782"/>
</g>
<!-- Node32 -->
<g id="node30" class="node">
<title>Node32</title>
<ellipse fill="none" stroke="#000000" cx="243" cy="-306" rx="27" ry="18"/>
<text text-anchor="middle" x="243" y="-301.8" font-family="Times,serif" font-size="14.00" fill="#000000">in</text>
</g>
<!-- Node31&#45;&gt;Node32 -->
<g id="edge20" class="edge">
<title>Node31-&gt;Node32</title>
<path fill="none" stroke="#000000" d="M270.2854,-360.5708C266.0403,-352.0807 260.8464,-341.6929 256.1337,-332.2674"/>
<polygon fill="#000000" stroke="#000000" points="259.237,-330.6477 251.6343,-323.2687 252.976,-333.7782 259.237,-330.6477"/>
</g>
<!-- Node33 -->
<g id="node31" class="node">
<title>Node33</title>
<ellipse fill="none" stroke="#000000" cx="315" cy="-306" rx="27" ry="18"/>
<text text-anchor="middle" x="315" y="-301.8" font-family="Times,serif" font-size="14.00" fill="#000000">d</text>
</g>
<!-- Node31&#45;&gt;Node33 -->
<g id="edge21" class="edge">
<title>Node31-&gt;Node33</title>
<path fill="none" stroke="#000000" d="M287.7146,-360.5708C291.9597,-352.0807 297.1536,-341.6929 301.8663,-332.2674"/>
<polygon fill="#000000" stroke="#000000" points="305.024,-333.7782 306.3657,-323.2687 298.763,-330.6477 305.024,-333.7782"/>
</g>
<!-- Node37 -->
<g id="node34" class="node">
<title>Node37</title>
<ellipse fill="none" stroke="#000000" cx="369" cy="-522" rx="27" ry="18"/>
<text text-anchor="middle" x="369" y="-517.8" font-family="Times,serif" font-size="14.00" fill="#000000">xor</text>
</g>
<!-- Node36&#45;&gt;Node37 -->
<g id="edge27" class="edge">
<title>Node36-&gt;Node37</title>
<path fill="none" stroke="#000000" d="M396.2854,-576.5708C392.0403,-568.0807 386.8464,-557.6929 382.1337,-548.2674"/>
<polygon fill="#000000" stroke="#000000" points="385.237,-546.6477 377.6343,-539.2687 378.976,-549.7782 385.237,-546.6477"/>
</g>
<!-- Node38 -->
<g id="node35" class="node">
<title>Node38</title>
<ellipse fill="none" stroke="#000000" cx="441" cy="-522" rx="27" ry="18"/>
<text text-anchor="middle" x="441" y="-517.8" font-family="Times,serif" font-size="14.00" fill="#000000">T</text>
</g>
<!-- Node36&#45;&gt;Node38 -->
<g id="edge43" class="edge">
<title>Node36-&gt;Node38</title>
<path fill="none" stroke="#000000" d="M413.7146,-576.5708C417.9597,-568.0807 423.1536,-557.6929 427.8663,-548.2674"/>
<polygon fill="#000000" stroke="#000000" points="431.024,-549.7782 432.3657,-539.2687 424.763,-546.6477 431.024,-549.7782"/>
</g>
<!-- Node57 -->
<g id="node51" class="node">
<title>Node57</title>
<ellipse fill="none" stroke="#000000" cx="513" cy="-522" rx="27" ry="18"/>
<text text-anchor="middle" x="513" y="-517.8" font-family="Times,serif" font-size="14.00" fill="#000000">EP</text>
</g>
<!-- Node36&#45;&gt;Node57 -->
<g id="edge44" class="edge">
<title>Node36-&gt;Node57</title>
<path fill="none" stroke="#000000" d="M424.3082,-581.1278C441.3555,-569.763 466.4019,-553.0654 485.5344,-540.3104"/>
<polygon fill="#000000" stroke="#000000" points="487.4799,-543.2199 493.8589,-534.7607 483.5969,-537.3956 487.4799,-543.2199"/>
</g>
<!-- Node39 -->
<g id="node36" class="node">
<title>Node39</title>
<ellipse fill="none" stroke="#000000" cx="423" cy="-450" rx="27" ry="18"/>
<text text-anchor="middle" x="423" y="-445.8" font-family="Times,serif" font-size="14.00" fill="#000000">F</text>
</g>
<!-- Node38&#45;&gt;Node39 -->
<g id="edge41" class="edge">
<title>Node38-&gt;Node39</title>
<path fill="none" stroke="#000000" d="M436.5506,-504.2022C434.5602,-496.2406 432.1668,-486.6671 429.9489,-477.7957"/>
<polygon fill="#000000" stroke="#000000" points="433.2816,-476.6951 427.4606,-467.8425 426.4906,-478.3929 433.2816,-476.6951"/>
</g>
<!-- Node55 -->
<g id="node50" class="node">
<title>Node55</title>
<ellipse fill="none" stroke="#000000" cx="495" cy="-450" rx="27" ry="18"/>
<text text-anchor="middle" x="495" y="-445.8" font-family="Times,serif" font-size="14.00" fill="#000000">TP</text>
</g>
<!-- Node38&#45;&gt;Node55 -->
<g id="edge42" class="edge">
<title>Node38-&gt;Node55</title>
<path fill="none" stroke="#000000" d="M453.2534,-505.6621C460.1577,-496.4564 468.9177,-484.7764 476.6285,-474.4953"/>
<polygon fill="#000000" stroke="#000000" points="479.595,-476.3733 482.7951,-466.2733 473.995,-472.1733 479.595,-476.3733"/>
</g>
<!-- Node40 -->
<g id="node37" class="node">
<title>Node40</title>
<ellipse fill="none" stroke="#000000" cx="351" cy="-378" rx="27" ry="18"/>
<text text-anchor="middle" x="351" y="-373.8" font-family="Times,serif" font-size="14.00" fill="#000000">(</text>
</g>
<!-- Node39&#45;&gt;Node40 -->
<g id="edge28" class="edge">
<title>Node39-&gt;Node40</title>
<path fill="none" stroke="#000000" d="M407.7307,-434.7307C397.803,-424.803 384.6847,-411.6847 373.5637,-400.5637"/>
<polygon fill="#000000" stroke="#000000" points="375.7933,-397.8436 366.2473,-393.2473 370.8436,-402.7933 375.7933,-397.8436"/>
</g>
<!-- Node41 -->
<g id="node38" class="node">
<title>Node41</title>
<ellipse fill="none" stroke="#000000" cx="423" cy="-378" rx="27" ry="18"/>
<text text-anchor="middle" x="423" y="-373.8" font-family="Times,serif" font-size="14.00" fill="#000000">E</text>
</g>
<!-- Node39&#45;&gt;Node41 -->
<g id="edge39" class="edge">
<title>Node39-&gt;Node41</title>
<path fill="none" stroke="#000000" d="M423,-431.8314C423,-424.131 423,-414.9743 423,-406.4166"/>
<polygon fill="#000000" stroke="#000000" points="426.5001,-406.4132 423,-396.4133 419.5001,-406.4133 426.5001,-406.4132"/>
</g>
<!-- Node54 -->
<g id="node49" class="node">
<title>Node54</title>
<ellipse fill="none" stroke="#000000" cx="495" cy="-378" rx="27" ry="18"/>
<text text-anchor="middle" x="495" y="-373.8" font-family="Times,serif" font-size="14.00" fill="#000000">)</text>
</g>
<!-- Node39&#45;&gt;Node54 -->
<g id="edge40" class="edge">
<title>Node39-&gt;Node54</title>
<path fill="none" stroke="#000000" d="M438.2693,-434.7307C448.197,-424.803 461.3153,-411.6847 472.4363,-400.5637"/>
<polygon fill="#000000" stroke="#000000" points="475.1564,-402.7933 479.7527,-393.2473 470.2067,-397.8436 475.1564,-402.7933"/>
</g>
<!-- Node42 -->
<g id="node39" class="node">
<title>Node42</title>
<ellipse fill="none" stroke="#000000" cx="405" cy="-306" rx="27" ry="18"/>
<text text-anchor="middle" x="405" y="-301.8" font-family="Times,serif" font-size="14.00" fill="#000000">T</text>
</g>
<!-- Node41&#45;&gt;Node42 -->
<g id="edge37" class="edge">
<title>Node41-&gt;Node42</title>
<path fill="none" stroke="#000000" d="M418.5506,-360.2022C416.5602,-352.2406 414.1668,-342.6671 411.9489,-333.7957"/>
<polygon fill="#000000" stroke="#000000" points="415.2816,-332.6951 409.4606,-323.8425 408.4906,-334.3929 415.2816,-332.6951"/>
</g>
<!-- Node52 -->
<g id="node48" class="node">
<title>Node52</title>
<ellipse fill="none" stroke="#000000" cx="477" cy="-306" rx="27" ry="18"/>
<text text-anchor="middle" x="477" y="-301.8" font-family="Times,serif" font-size="14.00" fill="#000000">EP</text>
</g>
<!-- Node41&#45;&gt;Node52 -->
<g id="edge38" class="edge">
<title>Node41-&gt;Node52</title>
<path fill="none" stroke="#000000" d="M435.2534,-361.6621C442.1577,-352.4564 450.9177,-340.7764 458.6285,-330.4953"/>
<polygon fill="#000000" stroke="#000000" points="461.595,-332.3733 464.7951,-322.2733 455.995,-328.1733 461.595,-332.3733"/>
</g>
<!-- Node43 -->
<g id="node40" class="node">
<title>Node43</title>
<ellipse fill="none" stroke="#000000" cx="369" cy="-234" rx="27" ry="18"/>
<text text-anchor="middle" x="369" y="-229.8" font-family="Times,serif" font-size="14.00" fill="#000000">F</text>
</g>
<!-- Node42&#45;&gt;Node43 -->
<g id="edge35" class="edge">
<title>Node42-&gt;Node43</title>
<path fill="none" stroke="#000000" d="M396.2854,-288.5708C392.0403,-280.0807 386.8464,-269.6929 382.1337,-260.2674"/>
<polygon fill="#000000" stroke="#000000" points="385.237,-258.6477 377.6343,-251.2687 378.976,-261.7782 385.237,-258.6477"/>
</g>
<!-- Node50 -->
<g id="node47" class="node">
<title>Node50</title>
<ellipse fill="none" stroke="#000000" cx="441" cy="-234" rx="27" ry="18"/>
<text text-anchor="middle" x="441" y="-229.8" font-family="Times,serif" font-size="14.00" fill="#000000">TP</text>
</g>
<!-- Node42&#45;&gt;Node50 -->
<g id="edge36" class="edge">
<title>Node42-&gt;Node50</title>
<path fill="none" stroke="#000000" d="M413.7146,-288.5708C417.9597,-280.0807 423.1536,-269.6929 427.8663,-260.2674"/>
<polygon fill="#000000" stroke="#000000" points="431.024,-261.7782 432.3657,-251.2687 424.763,-258.6477 431.024,-261.7782"/>
</g>
<!-- Node44 -->
<g id="node41" class="node">
<title>Node44</title>
<ellipse fill="none" stroke="#000000" cx="333" cy="-162" rx="27" ry="18"/>
<text text-anchor="middle" x="333" y="-157.8" font-family="Times,serif" font-size="14.00" fill="#000000">a</text>
</g>
<!-- Node43&#45;&gt;Node44 -->
<g id="edge29" class="edge">
<title>Node43-&gt;Node44</title>
<path fill="none" stroke="#000000" d="M360.2854,-216.5708C356.0403,-208.0807 350.8464,-197.6929 346.1337,-188.2674"/>
<polygon fill="#000000" stroke="#000000" points="349.237,-186.6477 341.6343,-179.2687 342.976,-189.7782 349.237,-186.6477"/>
</g>
<!-- Node45 -->
<g id="node42" class="node">
<title>Node45</title>
<ellipse fill="none" stroke="#000000" cx="405" cy="-162" rx="27" ry="18"/>
<text text-anchor="middle" x="405" y="-157.8" font-family="Times,serif" font-size="14.00" fill="#000000">U</text>
</g>
<!-- Node43&#45;&gt;Node45 -->
<g id="edge34" class="edge">
<title>Node43-&gt;Node45</title>
<path fill="none" stroke="#000000" d="M377.7146,-216.5708C381.9597,-208.0807 387.1536,-197.6929 391.8663,-188.2674"/>
<polygon fill="#000000" stroke="#000000" points="395.024,-189.7782 396.3657,-179.2687 388.763,-186.6477 395.024,-189.7782"/>
</g>
<!-- Node46 -->
<g id="node43" class="node">
<title>Node46</title>
<ellipse fill="none" stroke="#000000" cx="369" cy="-90" rx="27" ry="18"/>
<text text-anchor="middle" x="369" y="-85.8" font-family="Times,serif" font-size="14.00" fill="#000000">not</text>
</g>
<!-- Node45&#45;&gt;Node46 -->
<g id="edge30" class="edge">
<title>Node45-&gt;Node46</title>
<path fill="none" stroke="#000000" d="M396.2854,-144.5708C392.0403,-136.0807 386.8464,-125.6929 382.1337,-116.2674"/>
<polygon fill="#000000" stroke="#000000" points="385.237,-114.6477 377.6343,-107.2687 378.976,-117.7782 385.237,-114.6477"/>
</g>
<!-- Node47 -->
<g id="node44" class="node">
<title>Node47</title>
<ellipse fill="none" stroke="#000000" cx="441" cy="-90" rx="27" ry="18"/>
<text text-anchor="middle" x="441" y="-85.8" font-family="Times,serif" font-size="14.00" fill="#000000">U</text>
</g>
<!-- Node45&#45;&gt;Node47 -->
<g id="edge33" class="edge">
<title>Node45-&gt;Node47</title>
<path fill="none" stroke="#000000" d="M413.7146,-144.5708C417.9597,-136.0807 423.1536,-125.6929 427.8663,-116.2674"/>
<polygon fill="#000000" stroke="#000000" points="431.024,-117.7782 432.3657,-107.2687 424.763,-114.6477 431.024,-117.7782"/>
</g>
<!-- Node48 -->
<g id="node45" class="node">
<title>Node48</title>
<ellipse fill="none" stroke="#000000" cx="405" cy="-18" rx="27" ry="18"/>
<text text-anchor="middle" x="405" y="-13.8" font-family="Times,serif" font-size="14.00" fill="#000000">in</text>
</g>
<!-- Node47&#45;&gt;Node48 -->
<g id="edge31" class="edge">
<title>Node47-&gt;Node48</title>
<path fill="none" stroke="#000000" d="M432.2854,-72.5708C428.0403,-64.0807 422.8464,-53.6929 418.1337,-44.2674"/>
<polygon fill="#000000" stroke="#000000" points="421.237,-42.6477 413.6343,-35.2687 414.976,-45.7782 421.237,-42.6477"/>
</g>
<!-- Node49 -->
<g id="node46" class="node">
<title>Node49</title>
<ellipse fill="none" stroke="#000000" cx="477" cy="-18" rx="27" ry="18"/>
<text text-anchor="middle" x="477" y="-13.8" font-family="Times,serif" font-size="14.00" fill="#000000">b</text>
</g>
<!-- Node47&#45;&gt;Node49 -->
<g id="edge32" class="edge">
<title>Node47-&gt;Node49</title>
<path fill="none" stroke="#000000" d="M449.7146,-72.5708C453.9597,-64.0807 459.1536,-53.6929 463.8663,-44.2674"/>
<polygon fill="#000000" stroke="#000000" points="467.024,-45.7782 468.3657,-35.2687 460.763,-42.6477 467.024,-45.7782"/>
</g>
</g>
</svg>