<?xml version="1.0" encoding="UTF-8" standalone="no"?><!DOCTYPE svg PUBLIC "-//W3C//DTD SVG 1.1//EN" "http://www.w3.org/Graphics/SVG/1.1/DTD/svg11.dtd"><!-- Generated by graphviz version 2.40.1 (20161225.0304)
 --><!-- Title: tree Pages: 1 --><svg xmlns="http://www.w3.org/2000/svg" xmlns:xlink="http://www.w3.org/1999/xlink" width="521pt" height="1268pt" viewBox="0.00 0.00 521.00 1268.00">
<g id="graph0" class="graph" transform="scale(1 1) rotate(0) translate(4 1264)">
<title>tree</title>
<polygon fill="#ffffff" stroke="transparent" points="-4,4 -4,-1264 517,-1264 517,4 -4,4"/>
<!-- Node0 -->
<g id="node1" class="node">
<title>Node0</title>
<ellipse fill="none" stroke="#000000" cx="324" cy="-1242" rx="27" ry="18"/>
<text text-anchor="middle" x="324" y="-1237.8" font-family="Times,serif" font-size="14.00" fill="#000000">I</text>
</g>
<!-- Node1 -->
<g id="node2" class="node">
<title>Node1</title>
<ellipse fill="none" stroke="#000000" cx="288" cy="-1170" rx="27" ry="18"/>
<text text-anchor="middle" x="288" y="-1165.8" font-family="Times,serif" font-size="14.00" fill="#000000">E</text>
</g>
<!-- Node0&#45;&gt;Node1 -->
<g id="edge60" class="edge">
<title>Node0-&gt;Node1</title>
<path fill="none" stroke="#000000" d="M315.2854,-1224.5708C311.0403,-1216.0807 305.8464,-1205.6929 301.1337,-1196.2674"/>
<polygon fill="#000000" stroke="#000000" points="304.237,-1194.6477 296.6343,-1187.2687 297.976,-1197.7782 304.237,-1194.6477"/>
</g>
<!-- Node74 -->
<g id="node62" class="node">
<title>Node74</title>
<ellipse fill="none" stroke="#000000" cx="360" cy="-1170" rx="27" ry="18"/>
<text text-anchor="middle" x="360" y="-1165.8" font-family="Times,serif" font-size="14.00" fill="#000000">I'</text>
</g>
<!-- Node0&#45;&gt;Node74 -->
<g id="edge61" class="edge">
<title>Node0-&gt;Node74</title>
<path fill="none" stroke="#000000" d="M332.7146,-1224.5708C336.9597,-1216.0807 342.1536,-1205.6929 346.8663,-1196.2674"/>
<polygon fill="#000000" stroke="#000000" points="350.024,-1197.7782 351.3657,-1187.2687 343.763,-1194.6477 350.024,-1197.7782"/>
</g>
<!-- Node2 -->
<g id="node3" class="node">
<title>Node2</title>
<ellipse fill="none" stroke="#000000" cx="252" cy="-1098" rx="27" ry="18"/>
<text text-anchor="middle" x="252" y="-1093.8" font-family="Times,serif" font-size="14.00" fill="#000000">T</text>
</g>
<!-- Node1&#45;&gt;Node2 -->
<g id="edge16" class="edge">
<title>Node1-&gt;Node2</title>
<path fill="none" stroke="#000000" d="M279.2854,-1152.5708C275.0403,-1144.0807 269.8464,-1133.6929 265.1337,-1124.2674"/>
<polygon fill="#000000" stroke="#000000" points="268.237,-1122.6477 260.6343,-1115.2687 261.976,-1125.7782 268.237,-1122.6477"/>
</g>
<!-- Node22 -->
<g id="node19" class="node">
<title>Node22</title>
<ellipse fill="none" stroke="#000000" cx="360" cy="-1098" rx="27" ry="18"/>
<text text-anchor="middle" x="360" y="-1093.8" font-family="Times,serif" font-size="14.00" fill="#000000">E'</text>
</g>
<!-- Node1&#45;&gt;Node22 -->
<g id="edge59" class="edge">
<title>Node1-&gt;Node22</title>
<path fill="none" stroke="#000000" d="M303.2693,-1154.7307C313.197,-1144.803 326.3153,-1131.6847 337.4363,-1120.5637"/>
<polygon fill="#000000" stroke="#000000" points="340.1564,-1122.7933 344.7527,-1113.2473 335.2067,-1117.8436 340.1564,-1122.7933"/>
</g>
<!-- Node3 -->
<g id="node4" class="node">
<title>Node3</title>
<ellipse fill="none" stroke="#000000" cx="180" cy="-1026" rx="27" ry="18"/>
<text text-anchor="middle" x="180" y="-1021.8" font-family="Times,serif" font-size="14.00" fill="#000000">F</text>
</g>
<!-- Node2&#45;&gt;Node3 -->
<g id="edge14" class="edge">
<title>Node2-&gt;Node3</title>
<path fill="none" stroke="#000000" d="M236.7307,-1082.7307C226.803,-1072.803 213.6847,-1059.6847 202.5637,-1048.5637"/>
<polygon fill="#000000" stroke="#000000" points="204.7933,-1045.8436 195.2473,-1041.2473 199.8436,-1050.7933 204.7933,-1045.8436"/>
</g>
<!-- Node20 -->
<g id="node18" class="node">
<title>Node20</title>
<ellipse fill="none" stroke="#000000" cx="252" cy="-1026" rx="27" ry="18"/>
<text text-anchor="middle" x="252" y="-1021.8" font-family="Times,serif" font-size="14.00" fill="#000000">T'</text>
</g>
<!-- Node2&#45;&gt;Node20 -->
<g id="edge15" class="edge">
<title>Node2-&gt;Node20</title>
<path fill="none" stroke="#000000" d="M252,-1079.8314C252,-1072.131 252,-1062.9743 252,-1054.4166"/>
<polygon fill="#000000" stroke="#000000" points="255.5001,-1054.4132 252,-1044.4133 248.5001,-1054.4133 255.5001,-1054.4132"/>
</g>
<!-- Node4 -->
<g id="node5" class="node">
<title>Node4</title>
<ellipse fill="none" stroke="#000000" cx="108" cy="-954" rx="27" ry="18"/>
<text text-anchor="middle" x="108" y="-949.8" font-family="Times,serif" font-size="14.00" fill="#000000">(</text>
</g>
<!-- Node3&#45;&gt;Node4 -->
<g id="edge1" class="edge">
<title>Node3-&gt;Node4</title>
<path fill="none" stroke="#000000" d="M164.7307,-1010.7307C154.803,-1000.803 141.6847,-987.6847 130.5637,-976.5637"/>
<polygon fill="#000000" stroke="#000000" points="132.7933,-973.8436 123.2473,-969.2473 127.8436,-978.7933 132.7933,-973.8436"/>
</g>
<!-- Node5 -->
<g id="node6" class="node">
<title>Node5</title>
<ellipse fill="none" stroke="#000000" cx="180" cy="-954" rx="27" ry="18"/>
<text text-anchor="middle" x="180" y="-949.8" font-family="Times,serif" font-size="14.00" fill="#000000">I</text>
</g>
<!-- Node3&#45;&gt;Node5 -->
<g id="edge12" class="edge">
<title>Node3-&gt;Node5</title>
<path fill="none" stroke="#000000" d="M180,-1007.8314C180,-1000.131 180,-990.9743 180,-982.4166"/>
<polygon fill="#000000" stroke="#000000" points="183.5001,-982.4132 180,-972.4133 176.5001,-982.4133 183.5001,-982.4132"/>
</g>
<!-- Node19 -->
<g id="node17" class="node">
<title>Node19</title>
<ellipse fill="none" stroke="#000000" cx="252" cy="-954" rx="27" ry="18"/>
<text text-anchor="middle" x="252" y="-949.8" font-family="Times,serif" font-size="14.00" fill="#000000">)</text>
</g>
<!-- Node3&#45;&gt;Node19 -->
<g id="edge13" class="edge">
<title>Node3-&gt;Node19</title>
<path fill="none" stroke="#000000" d="M195.2693,-1010.7307C205.197,-1000.803 218.3153,-987.6847 229.4363,-976.5637"/>
<polygon fill="#000000" stroke="#000000" points="232.1564,-978.7933 236.7527,-969.2473 227.2067,-973.8436 232.1564,-978.7933"/>
</g>
<!-- Node6 -->
<g id="node7" class="node">
<title>Node6</title>
<ellipse fill="none" stroke="#000000" cx="162" cy="-882" rx="27" ry="18"/>
<text text-anchor="middle" x="162" y="-877.8" font-family="Times,serif" font-size="14.00" fill="#000000">E</text>
</g>
<!-- Node5&#45;&gt;Node6 -->
<g id="edge10" class="edge">
<title>Node5-&gt;Node6</title>
<path fill="none" stroke="#000000" d="M175.5506,-936.2022C173.5602,-928.2406 171.1668,-918.6671 168.9489,-909.7957"/>
<polygon fill="#000000" stroke="#000000" points="172.2816,-908.6951 166.4606,-899.8425 165.4906,-910.3929 172.2816,-908.6951"/>
</g>
<!-- Node17 -->
<g id="node16" class="node">
<title>Node17</title>
<ellipse fill="none" stroke="#000000" cx="234" cy="-882" rx="27" ry="18"/>
<text text-anchor="middle" x="234" y="-877.8" font-family="Times,serif" font-size="14.00" fill="#000000">I'</text>
</g>
<!-- Node5&#45;&gt;Node17 -->
<g id="edge11" class="edge">
<title>Node5-&gt;Node17</title>
<path fill="none" stroke="#000000" d="M192.2534,-937.6621C199.1577,-928.4564 207.9177,-916.7764 215.6285,-906.4953"/>
<polygon fill="#000000" stroke="#000000" points="218.595,-908.3733 221.7951,-898.2733 212.995,-904.1733 218.595,-908.3733"/>
</g>
<!-- Node7 -->
<g id="node8" class="node">
<title>Node7</title>
<ellipse fill="none" stroke="#000000" cx="162" cy="-810" rx="27" ry="18"/>
<text text-anchor="middle" x="162" y="-805.8" font-family="Times,serif" font-size="14.00" fill="#000000">T</text>
</g>
<!-- Node6&#45;&gt;Node7 -->
<g id="edge8" class="edge">
<title>Node6-&gt;Node7</title>
<path fill="none" stroke="#000000" d="M162,-863.8314C162,-856.131 162,-846.9743 162,-838.4166"/>
<polygon fill="#000000" stroke="#000000" points="165.5001,-838.4132 162,-828.4133 158.5001,-838.4133 165.5001,-838.4132"/>
</g>
<!-- Node15 -->
<g id="node15" class="node">
<title>Node15</title>
<ellipse fill="none" stroke="#000000" cx="234" cy="-810" rx="27" ry="18"/>
<text text-anchor="middle" x="234" y="-805.8" font-family="Times,serif" font-size="14.00" fill="#000000">E'</text>
</g>
<!-- Node6&#45;&gt;Node15 -->
<g id="edge9" class="edge">
<title>Node6-&gt;Node15</title>
<path fill="none" stroke="#000000" d="M177.2693,-866.7307C187.197,-856.803 200.3153,-843.6847 211.4363,-832.5637"/>
<polygon fill="#000000" stroke="#000000" points="214.1564,-834.7933 218.7527,-825.2473 209.2067,-829.8436 214.1564,-834.7933"/>
</g>
<!-- Node8 -->
<g id="node9" class="node">
<title>Node8</title>
<ellipse fill="none" stroke="#000000" cx="95" cy="-738" rx="27" ry="18"/>
<text text-anchor="middle" x="95" y="-733.8" font-family="Times,serif" font-size="14.00" fill="#000000">F</text>
</g>
<!-- Node7&#45;&gt;Node8 -->
<g id="edge6" class="edge">
<title>Node7-&gt;Node8</title>
<path fill="none" stroke="#000000" d="M147.462,-794.3771C138.4188,-784.659 126.6268,-771.987 116.5136,-761.1191"/>
<polygon fill="#000000" stroke="#000000" points="118.8842,-758.5288 109.5096,-753.5924 113.7597,-763.2975 118.8842,-758.5288"/>
</g>
<!-- Node13 -->
<g id="node14" class="node">
<title>Node13</title>
<ellipse fill="none" stroke="#000000" cx="167" cy="-738" rx="27" ry="18"/>
<text text-anchor="middle" x="167" y="-733.8" font-family="Times,serif" font-size="14.00" fill="#000000">T'</text>
</g>
<!-- Node7&#45;&gt;Node13 -->
<g id="edge7" class="edge">
<title>Node7-&gt;Node13</title>
<path fill="none" stroke="#000000" d="M163.2617,-791.8314C163.7965,-784.131 164.4323,-774.9743 165.0266,-766.4166"/>
<polygon fill="#000000" stroke="#000000" points="168.52,-766.6317 165.7213,-756.4133 161.5368,-766.1467 168.52,-766.6317"/>
</g>
<!-- Node9 -->
<g id="node10" class="node">
<title>Node9</title>
<ellipse fill="none" stroke="#000000" cx="27" cy="-666" rx="27" ry="18"/>
<text text-anchor="middle" x="27" y="-661.8" font-family="Times,serif" font-size="14.00" fill="#000000">a</text>
</g>
<!-- Node8&#45;&gt;Node9 -->
<g id="edge2" class="edge">
<title>Node8-&gt;Node9</title>
<path fill="none" stroke="#000000" d="M80.5789,-722.7307C71.2028,-712.803 58.8133,-699.6847 48.3101,-688.5637"/>
<polygon fill="#000000" stroke="#000000" points="50.8111,-686.1143 41.4003,-681.2473 45.722,-690.9207 50.8111,-686.1143"/>
</g>
<!-- Node10 -->
<g id="node11" class="node">
<title>Node10</title>
<ellipse fill="none" stroke="#000000" cx="99" cy="-666" rx="27" ry="18"/>
<text text-anchor="middle" x="99" y="-661.8" font-family="Times,serif" font-size="14.00" fill="#000000">U</text>
</g>
<!-- Node8&#45;&gt;Node10 -->
<g id="edge5" class="edge">
<title>Node8-&gt;Node10</title>
<path fill="none" stroke="#000000" d="M96.0094,-719.8314C96.4372,-712.131 96.9459,-702.9743 97.4213,-694.4166"/>
<polygon fill="#000000" stroke="#000000" points="100.9169,-694.592 97.977,-684.4133 93.9276,-694.2037 100.9169,-694.592"/>
</g>
<!-- Node11 -->
<g id="node12" class="node">
<title>Node11</title>
<ellipse fill="none" stroke="#000000" cx="45" cy="-594" rx="27" ry="18"/>
<text text-anchor="middle" x="45" y="-589.8" font-family="Times,serif" font-size="14.00" fill="#000000">in</text>
</g>
<!-- Node10&#45;&gt;Node11 -->
<g id="edge3" class="edge">
<title>Node10-&gt;Node11</title>
<path fill="none" stroke="#000000" d="M86.7466,-649.6621C79.8423,-640.4564 71.0823,-628.7764 63.3715,-618.4953"/>
<polygon fill="#000000" stroke="#000000" points="66.005,-616.1733 57.2049,-610.2733 60.405,-620.3733 66.005,-616.1733"/>
</g>
<!-- Node12 -->
<g id="node13" class="node">
<title>Node12</title>
<ellipse fill="none" stroke="#000000" cx="117" cy="-594" rx="27" ry="18"/>
<text text-anchor="middle" x="117" y="-589.8" font-family="Times,serif" font-size="14.00" fill="#000000">b</text>
</g>
<!-- Node10&#45;&gt;Node12 -->
<g id="edge4" class="edge">
<title>Node10-&gt;Node12</title>
<path fill="none" stroke="#000000" d="M103.4494,-648.2022C105.4398,-640.2406 107.8332,-630.6671 110.0511,-621.7957"/>
<polygon fill="#000000" stroke="#000000" points="113.5094,-622.3929 112.5394,-611.8425 106.7184,-620.6951 113.5094,-622.3929"/>
</g>
<!-- Node23 -->
<g id="node20" class="node">
<title>Node23</title>
<ellipse fill="none" stroke="#000000" cx="324" cy="-1026" rx="27" ry="18"/>
<text text-anchor="middle" x="324" y="-1021.8" font-family="Times,serif" font-size="14.00" fill="#000000">or</text>
</g>
<!-- Node22&#45;&gt;Node23 -->
<g id="edge17" class="edge">
<title>Node22-&gt;Node23</title>
<path fill="none" stroke="#000000" d="M351.2854,-1080.5708C347.0403,-1072.0807 341.8464,-1061.6929 337.1337,-1052.2674"/>
<polygon fill="#000000" stroke="#000000" points="340.237,-1050.6477 332.6343,-1043.2687 333.976,-1053.7782 340.237,-1050.6477"/>
</g>
<!-- Node24 -->
<g id="node21" class="node">
<title>Node24</title>
<ellipse fill="none" stroke="#000000" cx="396" cy="-1026" rx="27" ry="18"/>
<text text-anchor="middle" x="396" y="-1021.8" font-family="Times,serif" font-size="14.00" fill="#000000">T</text>
</g>
<!-- Node22&#45;&gt;Node24 -->
<g id="edge57" class="edge">
<title>Node22-&gt;Node24</title>
<path fill="none" stroke="#000000" d="M368.7146,-1080.5708C372.9597,-1072.0807 378.1536,-1061.6929 382.8663,-1052.2674"/>
<polygon fill="#000000" stroke="#000000" points="386.024,-1053.7782 387.3657,-1043.2687 379.763,-1050.6477 386.024,-1053.7782"/>
</g>
<!-- Node72 -->
<g id="node61" class="node">
<title>Node72</title>
<ellipse fill="none" stroke="#000000" cx="468" cy="-1026" rx="27" ry="18"/>
<text text-anchor="middle" x="468" y="-1021.8" font-family="Times,serif" font-size="14.00" fill="#000000">E'</text>
</g>
<!-- Node22&#45;&gt;Node72 -->
<g id="edge58" class="edge">
<title>Node22-&gt;Node72</title>
<path fill="none" stroke="#000000" d="M379.3082,-1085.1278C396.3555,-1073.763 421.4019,-1057.0654 440.5344,-1044.3104"/>
<polygon fill="#000000" stroke="#000000" points="442.4799,-1047.2199 448.8589,-1038.7607 438.5969,-1041.3956 442.4799,-1047.2199"/>
</g>
<!-- Node25 -->
<g id="node22" class="node">
<title>Node25</title>
<ellipse fill="none" stroke="#000000" cx="360" cy="-954" rx="27" ry="18"/>
<text text-anchor="middle" x="360" y="-949.8" font-family="Times,serif" font-size="14.00" fill="#000000">F</text>
</g>
<!-- Node24&#45;&gt;Node25 -->
<g id="edge55" class="edge">
<title>Node24-&gt;Node25</title>
<path fill="none" stroke="#000000" d="M387.2854,-1008.5708C383.0403,-1000.0807 377.8464,-989.6929 373.1337,-980.2674"/>
<polygon fill="#000000" stroke="#000000" points="376.237,-978.6477 368.6343,-971.2687 369.976,-981.7782 376.237,-978.6477"/>
</g>
<!-- Node70 -->
<g id="node60" class="node">
<title>Node70</title>
<ellipse fill="none" stroke="#000000" cx="432" cy="-954" rx="27" ry="18"/>
<text text-anchor="middle" x="432" y="-949.8" font-family="Times,serif" font-size="14.00" fill="#000000">T'</text>
</g>
<!-- Node24&#45;&gt;Node70 -->
<g id="edge56" class="edge">
<title>Node24-&gt;Node70</title>
<path fill="none" stroke="#000000" d="M404.7146,-1008.5708C408.9597,-1000.0807 414.1536,-989.6929 418.8663,-980.2674"/>
<polygon fill="#000000" stroke="#000000" points="422.024,-981.7782 423.3657,-971.2687 415.763,-978.6477 422.024,-981.7782"/>
</g>
<!-- Node26 -->
<g id="node23" class="node">
<title>Node26</title>
<ellipse fill="none" stroke="#000000" cx="306" cy="-882" rx="27" ry="18"/>
<text text-anchor="middle" x="306" y="-877.8" font-family="Times,serif" font-size="14.00" fill="#000000">not</text>
</g>
<!-- Node25&#45;&gt;Node26 -->
<g id="edge18" class="edge">
<title>Node25-&gt;Node26</title>
<path fill="none" stroke="#000000" d="M347.7466,-937.6621C340.8423,-928.4564 332.0823,-916.7764 324.3715,-906.4953"/>
<polygon fill="#000000" stroke="#000000" points="327.005,-904.1733 318.2049,-898.2733 321.405,-908.3733 327.005,-904.1733"/>
</g>
<!-- Node27 -->
<g id="node24" class="node">
<title>Node27</title>
<ellipse fill="none" stroke="#000000" cx="378" cy="-882" rx="27" ry="18"/>
<text text-anchor="middle" x="378" y="-877.8" font-family="Times,serif" font-size="14.00" fill="#000000">F</text>
</g>
<!-- Node25&#45;&gt;Node27 -->
<g id="edge54" class="edge">
<title>Node25-&gt;Node27</title>
<path fill="none" stroke="#000000" d="M364.4494,-936.2022C366.4398,-928.2406 368.8332,-918.6671 371.0511,-909.7957"/>
<polygon fill="#000000" stroke="#000000" points="374.5094,-910.3929 373.5394,-899.8425 367.7184,-908.6951 374.5094,-910.3929"/>
</g>
<!-- Node28 -->
<g id="node25" class="node">
<title>Node28</title>
<ellipse fill="none" stroke="#000000" cx="306" cy="-810" rx="27" ry="18"/>
<text text-anchor="middle" x="306" y="-805.8" font-family="Times,serif" font-size="14.00" fill="#000000">(</text>
</g>
<!-- Node27&#45;&gt;Node28 -->
<g id="edge19" class="edge">
<title>Node27-&gt;Node28</title>
<path fill="none" stroke="#000000" d="M362.7307,-866.7307C352.803,-856.803 339.6847,-843.6847 328.5637,-832.5637"/>
<polygon fill="#000000" stroke="#000000" points="330.7933,-829.8436 321.2473,-825.2473 325.8436,-834.7933 330.7933,-829.8436"/>
</g>
<!-- Node29 -->
<g id="node26" class="node">
<title>Node29</title>
<ellipse fill="none" stroke="#000000" cx="378" cy="-810" rx="27" ry="18"/>
<text text-anchor="middle" x="378" y="-805.8" font-family="Times,serif" font-size="14.00" fill="#000000">I</text>
</g>
<!-- Node27&#45;&gt;Node29 -->
<g id="edge52" class="edge">
<title>Node27-&gt;Node29</title>
<path fill="none" stroke="#000000" d="M378,-863.8314C378,-856.131 378,-846.9743 378,-838.4166"/>
<polygon fill="#000000" stroke="#000000" points="381.5001,-838.4132 378,-828.4133 374.5001,-838.4133 381.5001,-838.4132"/>
</g>
<!-- Node69 -->
<g id="node59" class="node">
<title>Node69</title>
<ellipse fill="none" stroke="#000000" cx="450" cy="-810" rx="27" ry="18"/>
<text text-anchor="middle" x="450" y="-805.8" font-family="Times,serif" font-size="14.00" fill="#000000">)</text>
</g>
<!-- Node27&#45;&gt;Node69 -->
<g id="edge53" class="edge">
<title>Node27-&gt;Node69</title>
<path fill="none" stroke="#000000" d="M393.2693,-866.7307C403.197,-856.803 416.3153,-843.6847 427.4363,-832.5637"/>
<polygon fill="#000000" stroke="#000000" points="430.1564,-834.7933 434.7527,-825.2473 425.2067,-829.8436 430.1564,-834.7933"/>
</g>
<!-- Node30 -->
<g id="node27" class="node">
<title>Node30</title>
<ellipse fill="none" stroke="#000000" cx="306" cy="-738" rx="27" ry="18"/>
<text text-anchor="middle" x="306" y="-733.8" font-family="Times,serif" font-size="14.00" fill="#000000">E</text>
</g>
<!-- Node29&#45;&gt;Node30 -->
<g id="edge50" class="edge">
<title>Node29-&gt;Node30</title>
<path fill="none" stroke="#000000" d="M362.7307,-794.7307C352.803,-784.803 339.6847,-771.6847 328.5637,-760.5637"/>
<polygon fill="#000000" stroke="#000000" points="330.7933,-757.8436 321.2473,-753.2473 325.8436,-762.7933 330.7933,-757.8436"/>
</g>
<!-- Node67 -->
<g id="node58" class="node">
<title>Node67</title>
<ellipse fill="none" stroke="#000000" cx="378" cy="-738" rx="27" ry="18"/>
<text text-anchor="middle" x="378" y="-733.8" font-family="Times,serif" font-size="14.00" fill="#000000">I'</text>
</g>
<!-- Node29&#45;&gt;Node67 -->
<g id="edge51" class="edge">
<title>Node29-&gt;Node67</title>
<path fill="none" stroke="#000000" d="M378,-791.8314C378,-784.131 378,-774.9743 378,-766.4166"/>
<polygon fill="#000000" stroke="#000000" points="381.5001,-766.4132 378,-756.4133 374.5001,-766.4133 381.5001,-766.4132"/>
</g>
<!-- Node31 -->
<g id="node28" class="node">
<title>Node31</title>
<ellipse fill="none" stroke="#000000" cx="270" cy="-666" rx="27" ry="18"/>
<text text-anchor="middle" x="270" y="-661.8" font-family="Times,serif" font-size="14.00" fill="#000000">T</text>
</g>
<!-- Node30&#45;&gt;Node31 -->
<g id="edge28" class="edge">
<title>Node30-&gt;Node31</title>
<path fill="none" stroke="#000000" d="M297.2854,-720.5708C293.0403,-712.0807 287.8464,-701.6929 283.1337,-692.2674"/>
<polygon fill="#000000" stroke="#000000" points="286.237,-690.6477 278.6343,-683.2687 279.976,-693.7782 286.237,-690.6477"/>
</g>
<!-- Node41 -->
<g id="node37" class="node">
<title>Node41</title>
<ellipse fill="none" stroke="#000000" cx="378" cy="-666" rx="27" ry="18"/>
<text text-anchor="middle" x="378" y="-661.8" font-family="Times,serif" font-size="14.00" fill="#000000">E'</text>
</g>
<!-- Node30&#45;&gt;Node41 -->
<g id="edge49" class="edge">
<title>Node30-&gt;Node41</title>
<path fill="none" stroke="#000000" d="M321.2693,-722.7307C331.197,-712.803 344.3153,-699.6847 355.4363,-688.5637"/>
<polygon fill="#000000" stroke="#000000" points="358.1564,-690.7933 362.7527,-681.2473 353.2067,-685.8436 358.1564,-690.7933"/>
</g>
<!-- Node32 -->
<g id="node29" class="node">
<title>Node32</title>
<ellipse fill="none" stroke="#000000" cx="198" cy="-594" rx="27" ry="18"/>
<text text-anchor="middle" x="198" y="-589.8" font-family="Times,serif" font-size="14.00" fill="#000000">F</text>
</g>
<!-- Node31&#45;&gt;Node32 -->
<g id="edge26" class="edge">
<title>Node31-&gt;Node32</title>
<path fill="none" stroke="#000000" d="M254.7307,-650.7307C244.803,-640.803 231.6847,-627.6847 220.5637,-616.5637"/>
<polygon fill="#000000" stroke="#000000" points="222.7933,-613.8436 213.2473,-609.2473 217.8436,-618.7933 222.7933,-613.8436"/>
</g>
<!-- Node39 -->
<g id="node36" class="node">
<title>Node39</title>
<ellipse fill="none" stroke="#000000" cx="270" cy="-594" rx="27" ry="18"/>
<text text-anchor="middle" x="270" y="-589.8" font-family="Times,serif" font-size="14.00" fill="#000000">T'</text>
</g>
<!-- Node31&#45;&gt;Node39 -->
<g id="edge27" class="edge">
<title>Node31-&gt;Node39</title>
<path fill="none" stroke="#000000" d="M270,-647.8314C270,-640.131 270,-630.9743 270,-622.4166"/>
<polygon fill="#000000" stroke="#000000" points="273.5001,-622.4132 270,-612.4133 266.5001,-622.4133 273.5001,-622.4132"/>
</g>
<!-- Node33 -->
<g id="node30" class="node">
<title>Node33</title>
<ellipse fill="none" stroke="#000000" cx="144" cy="-522" rx="27" ry="18"/>
<text text-anchor="middle" x="144" y="-517.8" font-family="Times,serif" font-size="14.00" fill="#000000">c</text>
</g>
<!-- Node32&#45;&gt;Node33 -->
<g id="edge20" class="edge">
<title>Node32-&gt;Node33</title>
<path fill="none" stroke="#000000" d="M185.7466,-577.6621C178.8423,-568.4564 170.0823,-556.7764 162.3715,-546.4953"/>
<polygon fill="#000000" stroke="#000000" points="165.005,-544.1733 156.2049,-538.2733 159.405,-548.3733 165.005,-544.1733"/>
</g>
<!-- Node34 -->
<g id="node31" class="node">
<title>Node34</title>
<ellipse fill="none" stroke="#000000" cx="216" cy="-522" rx="27" ry="18"/>
<text text-anchor="middle" x="216" y="-517.8" font-family="Times,serif" font-size="14.00" fill="#000000">U</text>
</g>
<!-- Node32&#45;&gt;Node34 -->
<g id="edge25" class="edge">
<title>Node32-&gt;Node34</title>
<path fill="none" stroke="#000000" d="M202.4494,-576.2022C204.4398,-568.2406 206.8332,-558.6671 209.0511,-549.7957"/>
<polygon fill="#000000" stroke="#000000" points="212.5094,-550.3929 211.5394,-539.8425 205.7184,-548.6951 212.5094,-550.3929"/>
</g>
<!-- Node35 -->
<g id="node32" class="node">
<title>Node35</title>
<ellipse fill="none" stroke="#000000" cx="180" cy="-450" rx="27" ry="18"/>
<text text-anchor="middle" x="180" y="-445.8" font-family="Times,serif" font-size="14.00" fill="#000000">not</text>
</g>
<!-- Node34&#45;&gt;Node35 -->
<g id="edge21" class="edge">
<title>Node34-&gt;Node35</title>
<path fill="none" stroke="#000000" d="M207.2854,-504.5708C203.0403,-496.0807 197.8464,-485.6929 193.1337,-476.2674"/>
<polygon fill="#000000" stroke="#000000" points="196.237,-474.6477 188.6343,-467.2687 189.976,-477.7782 196.237,-474.6477"/>
</g>
<!-- Node36 -->
<g id="node33" class="node">
<title>Node36</title>
<ellipse fill="none" stroke="#000000" cx="252" cy="-450" rx="27" ry="18"/>
<text text-anchor="middle" x="252" y="-445.8" font-family="Times,serif" font-size="14.00" fill="#000000">U</text>
</g>
<!-- Node34&#45;&gt;Node36 -->
<g id="edge24" class="edge">
<title>Node34-&gt;Node36</title>
<path fill="none" stroke="#000000" d="M224.7146,-504.5708C228.9597,-496.0807 234.1536,-485.6929 238.8663,-476.2674"/>
<polygon fill="#000000" stroke="#000000" points="242.024,-477.7782 243.3657,-467.2687 235.763,-474.6477 242.024,-477.7782"/>
</g>
<!-- Node37 -->
<g id="node34" class="node">
<title>Node37</title>
<ellipse fill="none" stroke="#000000" cx="216" cy="-378" rx="27" ry="18"/>
<text text-anchor="middle" x="216" y="-373.8" font-family="Times,serif" font-size="14.00" fill="#000000">in</text>
</g>
<!-- Node36&#45;&gt;Node37 -->
<g id="edge22" class="edge">
<title>Node36-&gt;Node37</title>
<path fill="none" stroke="#000000" d="M243.2854,-432.5708C239.0403,-424.0807 233.8464,-413.6929 229.1337,-404.2674"/>
<polygon fill="#000000" stroke="#000000" points="232.237,-402.6477 224.6343,-395.2687 225.976,-405.7782 232.237,-402.6477"/>
</g>
<!-- Node38 -->
<g id="node35" class="node">
<title>Node38</title>
<ellipse fill="none" stroke="#000000" cx="288" cy="-378" rx="27" ry="18"/>
<text text-anchor="middle" x="288" y="-373.8" font-family="Times,serif" font-size="14.00" fill="#000000">d</text>
</g>
<!-- Node36&#45;&gt;Node38 -->
<g id="edge23" class="edge">
<title>Node36-&gt;Node38</title>
<path fill="none" stroke="#000000" d="M260.7146,-432.5708C264.9597,-424.0807 270.1536,-413.6929 274.8663,-404.2674"/>
<polygon fill="#000000" stroke="#000000" points="278.024,-405.7782 279.3657,-395.2687 271.763,-402.6477 278.024,-405.7782"/>
</g>
<!-- Node42 -->
<g id="node38" class="node">
<title>Node42</title>
<ellipse fill="none" stroke="#000000" cx="342" cy="-594" rx="27" ry="18"/>
<text text-anchor="middle" x="342" y="-589.8" font-family="Times,serif" font-size="14.00" fill="#000000">xor</text>
</g>
<!-- Node41&#45;&gt;Node42 -->
<g id="edge29" class="edge">
<title>Node41-&gt;Node42</title>
<path fill="none" stroke="#000000" d="M369.2854,-648.5708C365.0403,-640.0807 359.8464,-629.6929 355.1337,-620.2674"/>
<polygon fill="#000000" stroke="#000000" points="358.237,-618.6477 350.6343,-611.2687 351.976,-621.7782 358.237,-618.6477"/>
</g>
<!-- Node43 -->
<g id="node39" class="node">
<title>Node43</title>
<ellipse fill="none" stroke="#000000" cx="414" cy="-594" rx="27" ry="18"/>
<text text-anchor="middle" x="414" y="-589.8" font-family="Times,serif" font-size="14.00" fill="#000000">T</text>
</g>
<!-- Node41&#45;&gt;Node43 -->
<g id="edge47" class="edge">
<title>Node41-&gt;Node43</title>
<path fill="none" stroke="#000000" d="M386.7146,-648.5708C390.9597,-640.0807 396.1536,-629.6929 400.8663,-620.2674"/>
<polygon fill="#000000" stroke="#000000" points="404.024,-621.7782 405.3657,-611.2687 397.763,-618.6477 404.024,-621.7782"/>
</g>
<!-- Node65 -->
<g id="node57" class="node">
<title>Node65</title>
<ellipse fill="none" stroke="#000000" cx="486" cy="-594" rx="27" ry="18"/>
<text text-anchor="middle" x="486" y="-589.8" font-family="Times,serif" font-size="14.00" fill="#000000">E'</text>
</g>
<!-- Node41&#45;&gt;Node65 -->
<g id="edge48" class="edge">
<title>Node41-&gt;Node65</title>
<path fill="none" stroke="#000000" d="M397.3082,-653.1278C414.3555,-641.763 439.4019,-625.0654 458.5344,-612.3104"/>
<polygon fill="#000000" stroke="#000000" points="460.4799,-615.2199 466.8589,-606.7607 456.5969,-609.3956 460.4799,-615.2199"/>
</g>
<!-- Node44 -->
<g id="node40" class="node">
<title>Node44</title>
<ellipse fill="none" stroke="#000000" cx="396" cy="-522" rx="27" ry="18"/>
<text text-anchor="middle" x="396" y="-517.8" font-family="Times,serif" font-size="14.00" fill="#000000">F</text>
</g>
<!-- Node43&#45;&gt;Node44 -->
<g id="edge45" class="edge">
<title>Node43-&gt;Node44</title>
<path fill="none" stroke="#000000" d="M409.5506,-576.2022C407.5602,-568.2406 405.1668,-558.6671 402.9489,-549.7957"/>
<polygon fill="#000000" stroke="#000000" points="406.2816,-548.6951 400.4606,-539.8425 399.4906,-550.3929 406.2816,-548.6951"/>
</g>
<!-- Node63 -->
<g id="node56" class="node">
<title>Node63</title>
<ellipse fill="none" stroke="#000000" cx="468" cy="-522" rx="27" ry="18"/>
<text text-anchor="middle" x="468" y="-517.8" font-family="Times,serif" font-size="14.00" fill="#000000">T'</text>
</g>
<!-- Node43&#45;&gt;Node63 -->
<g id="edge46" class="edge">
<title>Node43-&gt;Node63</title>
<path fill="none" stroke="#000000" d="M426.2534,-577.6621C433.1577,-568.4564 441.9177,-556.7764 449.6285,-546.4953"/>
<polygon fill="#000000" stroke="#000000" points="452.595,-548.3733 455.7951,-538.2733 446.995,-544.1733 452.595,-548.3733"/>
</g>
<!-- Node45 -->
<g id="node41" class="node">
<title>Node45</title>
<ellipse fill="none" stroke="#000000" cx="324" cy="-450" rx="27" ry="18"/>
<text text-anchor="middle" x="324" y="-445.8" font-family="Times,serif" font-size="14.00" fill="#000000">(</text>
</g>
<!-- Node44&#45;&gt;Node45 -->
<g id="edge30" class="edge">
<title>Node44-&gt;Node45</title>
<path fill="none" stroke="#000000" d="M380.7307,-506.7307C370.803,-496.803 357.6847,-483.6847 346.5637,-472.5637"/>
<polygon fill="#000000" stroke="#000000" points="348.7933,-469.8436 339.2473,-465.2473 343.8436,-474.7933 348.7933,-469.8436"/>
</g>
<!-- Node46 -->
<g id="node42" class="node">
<title>Node46</title>
<ellipse fill="none" stroke="#000000" cx="396" cy="-450" rx="27" ry="18"/>
<text text-anchor="middle" x="396" y="-445.8" font-family="Times,serif" font-size="14.00" fill="#000000">I</text>
</g>
<!-- Node44&#45;&gt;Node46 -->
<g id="edge43" class="edge">
<title>Node44-&gt;Node46</title>
<path fill="none" stroke="#000000" d="M396,-503.8314C396,-496.131 396,-486.9743 396,-478.4166"/>
<polygon fill="#000000" stroke="#000000" points="399.5001,-478.4132 396,-468.4133 392.5001,-478.4133 399.5001,-478.4132"/>
</g>
<!-- Node62 -->
<g id="node55" class="node">
<title>Node62</title>
<ellipse fill="none" stroke="#000000" cx="468" cy="-450" rx="27" ry="18"/>
<text text-anchor="middle" x="468" y="-445.8" font-family="Times,serif" font-size="14.00" fill="#000000">)</text>
</g>
<!-- Node44&#45;&gt;Node62 -->
<g id="edge44" class="edge">
<title>Node44-&gt;Node62</title>
<path fill="none" stroke="#000000" d="M411.2693,-506.7307C421.197,-496.803 434.3153,-483.6847 445.4363,-472.5637"/>
<polygon fill="#000000" stroke="#000000" points="448.1564,-474.7933 452.7527,-465.2473 443.2067,-469.8436 448.1564,-474.7933"/>
</g>
<!-- Node47 -->
<g id="node43" class="node">
<title>Node47</title>
<ellipse fill="none" stroke="#000000" cx="378" cy="-378" rx="27" ry="18"/>
<text text-anchor="middle" x="378" y="-373.8" font-family="Times,serif" font-size="14.00" fill="#000000">E</text>
</g>
<!-- Node46&#45;&gt;Node47 -->
<g id="edge41" class="edge">
<title>Node46-&gt;Node47</title>
<path fill="none" stroke="#000000" d="M391.5506,-432.2022C389.5602,-424.2406 387.1668,-414.6671 384.9489,-405.7957"/>
<polygon fill="#000000" stroke="#000000" points="388.2816,-404.6951 382.4606,-395.8425 381.4906,-406.3929 388.2816,-404.6951"/>
</g>
<!-- Node60 -->
<g id="node54" class="node">
<title>Node60</title>
<ellipse fill="none" stroke="#000000" cx="450" cy="-378" rx="27" ry="18"/>
<text text-anchor="middle" x="450" y="-373.8" font-family="Times,serif" font-size="14.00" fill="#000000">I'</text>
</g>
<!-- Node46&#45;&gt;Node60 -->
<g id="edge42" class="edge">
<title>Node46-&gt;Node60</title>
<path fill="none" stroke="#000000" d="M408.2534,-433.6621C415.1577,-424.4564 423.9177,-412.7764 431.6285,-402.4953"/>
<polygon fill="#000000" stroke="#000000" points="434.595,-404.3733 437.7951,-394.2733 428.995,-400.1733 434.595,-404.3733"/>
</g>
<!-- Node48 -->
<g id="node44" class="node">
<title>Node48</title>
<ellipse fill="none" stroke="#000000" cx="342" cy="-306" rx="27" ry="18"/>
<text text-anchor="middle" x="342" y="-301.8" font-family="Times,serif" font-size="14.00" fill="#000000">T</text>
</g>
<!-- Node47&#45;&gt;Node48 -->
<g id="edge39" class="edge">
<title>Node47-&gt;Node48</title>
<path fill="none" stroke="#000000" d="M369.2854,-360.5708C365.0403,-352.0807 359.8464,-341.6929 355.1337,-332.2674"/>
<polygon fill="#000000" stroke="#000000" points="358.237,-330.6477 350.6343,-323.2687 351.976,-333.7782 358.237,-330.6477"/>
</g>
<!-- Node58 -->
<g id="node53" class="node">
<title>Node58</title>
<ellipse fill="none" stroke="#000000" cx="414" cy="-306" rx="27" ry="18"/>
<text text-anchor="middle" x="414" y="-301.8" font-family="Times,serif" font-size="14.00" fill="#000000">E'</text>
</g>
<!-- Node47&#45;&gt;Node58 -->
<g id="edge40" class="edge">
<title>Node47-&gt;Node58</title>
<path fill="none" stroke="#000000" d="M386.7146,-360.5708C390.9597,-352.0807 396.1536,-341.6929 400.8663,-332.2674"/>
<polygon fill="#000000" stroke="#000000" points="404.024,-333.7782 405.3657,-323.2687 397.763,-330.6477 404.024,-333.7782"/>
</g>
<!-- Node49 -->
<g id="node45" class="node">
<title>Node49</title>
<ellipse fill="none" stroke="#000000" cx="306" cy="-234" rx="27" ry="18"/>
<text text-anchor="middle" x="306" y="-229.8" font-family="Times,serif" font-size="14.00" fill="#000000">F</text>
</g>
<!-- Node48&#45;&gt;Node49 -->
<g id="edge37" class="edge">
<title>Node48-&gt;Node49</title>
<path fill="none" stroke="#000000" d="M333.2854,-288.5708C329.0403,-280.0807 323.8464,-269.6929 319.1337,-260.2674"/>
<polygon fill="#000000" stroke="#000000" points="322.237,-258.6477 314.6343,-251.2687 315.976,-261.7782 322.237,-258.6477"/>
</g>
<!-- Node56 -->
<g id="node52" class="node">
<title>Node56</title>
<ellipse fill="none" stroke="#000000" cx="378" cy="-234" rx="27" ry="18"/>
<text text-anchor="middle" x="378" y="-229.8" font-family="Times,serif" font-size="14.00" fill="#000000">T'</text>
</g>
<!-- Node48&#45;&gt;Node56 -->
<g id="edge38" class="edge">
<title>Node48-&gt;Node56</title>
<path fill="none" stroke="#000000" d="M350.7146,-288.5708C354.9597,-280.0807 360.1536,-269.6929 364.8663,-260.2674"/>
<polygon fill="#000000" stroke="#000000" points="368.024,-261.7782 369.3657,-251.2687 361.763,-258.6477 368.024,-261.7782"/>
</g>
<!-- Node50 -->
<g id="node46" class="node">
<title>Node50</title>
<ellipse fill="none" stroke="#000000" cx="270" cy="-162" rx="27" ry="18"/>
<text text-anchor="middle" x="270" y="-157.8" font-family="Times,serif" font-size="14.00" fill="#000000">a</text>
</g>
<!-- Node49&#45;&gt;Node50 -->
<g id="edge31" class="edge">
<title>Node49-&gt;Node50</title>
<path fill="none" stroke="#000000" d="M297.2854,-216.5708C293.0403,-208.0807 287.8464,-197.6929 283.1337,-188.2674"/>
<polygon fill="#000000" stroke="#000000" points="286.237,-186.6477 278.6343,-179.2687 279.976,-189.7782 286.237,-186.6477"/>
</g>
<!-- Node51 -->
<g id="node47" class="node">
<title>Node51</title>
<ellipse fill="none" stroke="#000000" cx="342" cy="-162" rx="27" ry="18"/>
<text text-anchor="middle" x="342" y="-157.8" font-family="Times,serif" font-size="14.00" fill="#000000">U</text>
</g>
<!-- Node49&#45;&gt;Node51 -->
<g id="edge36" class="edge">
<title>Node49-&gt;Node51</title>
<path fill="none" stroke="#000000" d="M314.7146,-216.5708C318.9597,-208.0807 324.1536,-197.6929 328.8663,-188.2674"/>
<polygon fill="#000000" stroke="#000000" points="332.024,-189.7782 333.3657,-179.2687 325.763,-186.6477 332.024,-189.7782"/>
</g>
<!-- Node52 -->
<g id="node48" class="node">
<title>Node52</title>
<ellipse fill="none" stroke="#000000" cx="306" cy="-90" rx="27" ry="18"/>
<text text-anchor="middle" x="306" y="-85.8" font-family="Times,serif" font-size="14.00" fill="#000000">not</text>
</g>
<!-- Node51&#45;&gt;Node52 -->
<g id="edge32" class="edge">
<title>Node51-&gt;Node52</title>
<path fill="none" stroke="#000000" d="M333.2854,-144.5708C329.0403,-136.0807 323.8464,-125.6929 319.1337,-116.2674"/>
<polygon fill="#000000" stroke="#000000" points="322.237,-114.6477 314.6343,-107.2687 315.976,-117.7782 322.237,-114.6477"/>
</g>
<!-- Node53 -->
<g id="node49" class="node">
<title>Node53</title>
<ellipse fill="none" stroke="#000000" cx="378" cy="-90" rx="27" ry="18"/>
<text text-anchor="middle" x="378" y="-85.8" font-family="Times,serif" font-size="14.00" fill="#000000">U</text>
</g>
<!-- Node51&#45;&gt;Node53 -->
<g id="edge35" class="edge">
<title>Node51-&gt;Node53</title>
<path fill="none" stroke="#000000" d="M350.7146,-144.5708C354.9597,-136.0807 360.1536,-125.6929 364.8663,-116.2674"/>
<polygon fill="#000000" stroke="#000000" points="368.024,-117.7782 369.3657,-107.2687 361.763,-114.6477 368.024,-117.7782"/>
</g>
<!-- Node54 -->
<g id="node50" class="node">
<title>Node54</title>
<ellipse fill="none" stroke="#000000" cx="342" cy="-18" rx="27" ry="18"/>
<text text-anchor="middle" x="342" y="-13.8" font-family="Times,serif" font-size="14.00" fill="#000000">in</text>
</g>
<!-- Node53&#45;&gt;Node54 -->
<g id="edge33" class="edge">
<title>Node53-&gt;Node54</title>
<path fill="none" stroke="#000000" d="M369.2854,-72.5708C365.0403,-64.0807 359.8464,-53.6929 355.1337,-44.2674"/>
<polygon fill="#000000" stroke="#000000" points="358.237,-42.6477 350.6343,-35.2687 351.976,-45.7782 358.237,-42.6477"/>
</g>
<!-- Node55 -->
<g id="node51" class="node">
<title>Node55</title>
<ellipse fill="none" stroke="#000000" cx="414" cy="-18" rx="27" ry="18"/>
<text text-anchor="middle" x="414" y="-13.8" font-family="Times,serif" font-size="14.00" fill="#000000">b</text>
</g>
<!-- Node53&#45;&gt;Node55 -->
<g id="edge34" class="edge">
<title>Node53-&gt;Node55</title>
<path fill="none" stroke="#000000" d="M386.7146,-72.5708C390.9597,-64.0807 396.1536,-53.6929 400.8663,-44.2674"/>
<polygon fill="#000000" stroke="#000000" points="404.024,-45.7782 405.3657,-35.2687 397.763,-42.6477 404.024,-45.7782"/>
</g>
</g>
</svg>